<?xml version="1.0" encoding="UTF-8" standalone="no"?>
<svg
   width="26"
   height="26"
   viewBox="0 0 26 26"
   fill="none"
   version="1.1"
   id="svg22"
   sodipodi:docname="github.svg"
   inkscape:version="1.2.1 (9c6d41e410, 2022-07-14)"
   xmlns:inkscape="http://www.inkscape.org/namespaces/inkscape"
   xmlns:sodipodi="http://sodipodi.sourceforge.net/DTD/sodipodi-0.dtd"
   xmlns="http://www.w3.org/2000/svg"
   xmlns:svg="http://www.w3.org/2000/svg">
  <defs
     id="defs26" />
  <sodipodi:namedview
     id="namedview24"
     pagecolor="#ffffff"
     bordercolor="#666666"
     borderopacity="1.0"
     inkscape:showpageshadow="2"
     inkscape:pageopacity="0.0"
     inkscape:pagecheckerboard="0"
     inkscape:deskcolor="#d1d1d1"
     showgrid="false"
     inkscape:zoom="9"
     inkscape:cx="-30.555556"
     inkscape:cy="19.277778"
     inkscape:window-width="1920"
     inkscape:window-height="1017"
     inkscape:window-x="1912"
     inkscape:window-y="-8"
     inkscape:window-maximized="1"
     inkscape:current-layer="svg22" />
  <circle
     cx="13"
     cy="13"
     r="13"
     fill="#231f20"
     id="circle18" />
  <path
     fill-rule="evenodd"
     clip-rule="evenodd"
     d="m 13.565,6.71039 c -3.334,0 -6.017,2.6826 -6.017,6.01701 0,2.6576 1.73,4.914 4.112,5.7162 0.301,0.0502 0.401,-0.1253 0.401,-0.3008 0,-0.1504 0,-0.5265 0,-1.0279 -1.68,0.376 -2.031,-0.8023 -2.031,-0.8023 C 9.755,15.6106 9.353,15.4351 9.353,15.4351 8.802,15.059 9.404,15.059 9.404,15.059 c 0.601,0.0502 0.927,0.6268 0.927,0.6268 0.527,0.9276 1.404,0.6519 1.755,0.5014 0.05,-0.4011 0.201,-0.6518 0.376,-0.8022 -1.329,-0.1505 -2.732,-0.677 -2.732,-2.9835 0,-0.6518 0.225,-1.2034 0.626,-1.6045 -0.05,-0.1505 -0.275,-0.7522 0.05,-1.60458 0,0 0.502,-0.15043 1.655,0.62678 0.476,-0.12536 1.003,-0.20057 1.504,-0.20057 0.502,0 1.028,0.07521 1.505,0.20057 1.153,-0.77721 1.654,-0.62678 1.654,-0.62678 0.326,0.82738 0.126,1.42908 0.05,1.60458 0.377,0.4262 0.627,0.9527 0.627,1.6045 0,2.3065 -1.404,2.808 -2.758,2.9584 0.226,0.1755 0.402,0.5516 0.402,1.1031 0,0.8023 0,1.4541 0,1.6547 0,0.1504 0.1,0.351 0.426,0.3009 2.382,-0.7772 4.111,-3.0336 4.111,-5.6912 0,-3.33441 -2.682,-6.01701 -6.017,-6.01701 z"
     fill="#f9fafc"
     id="path20" />
</svg>
