<?xml version="1.0" encoding="UTF-8" standalone="no"?>
<svg
   width="26"
   height="26"
   viewBox="0 0 26 26"
   fill="none"
   version="1.1"
   id="svg22"
   sodipodi:docname="instagram.svg"
   inkscape:version="1.2.1 (9c6d41e410, 2022-07-14)"
   xmlns:inkscape="http://www.inkscape.org/namespaces/inkscape"
   xmlns:sodipodi="http://sodipodi.sourceforge.net/DTD/sodipodi-0.dtd"
   xmlns="http://www.w3.org/2000/svg"
   xmlns:svg="http://www.w3.org/2000/svg">
  <defs
     id="defs26" />
  <sodipodi:namedview
     id="namedview24"
     pagecolor="#ffffff"
     bordercolor="#666666"
     borderopacity="1.0"
     inkscape:showpageshadow="2"
     inkscape:pageopacity="0.0"
     inkscape:pagecheckerboard="0"
     inkscape:deskcolor="#d1d1d1"
     showgrid="false"
     inkscape:zoom="9"
     inkscape:cx="2.1111111"
     inkscape:cy="15.388889"
     inkscape:window-width="1920"
     inkscape:window-height="1017"
     inkscape:window-x="1912"
     inkscape:window-y="-8"
     inkscape:window-maximized="1"
     inkscape:current-layer="svg22" />
  <circle
     cx="13"
     cy="13"
     r="13"
     fill="#231f20"
     id="circle10" />
  <path
     d="m 13.0006,7.84384 c 1.6796,0 1.8785,0.00629 2.5419,0.03655 0.399,0.00488 0.7941,0.07813 1.1682,0.21656 0.2714,0.10465 0.5178,0.26494 0.7234,0.47058 0.2057,0.20564 0.366,0.45205 0.4706,0.72339 0.1384,0.37416 0.2117,0.76928 0.2166,1.16818 0.0299,0.6635 0.0365,0.8624 0.0365,2.5419 0,1.6795 -0.0063,1.8784 -0.0365,2.5419 -0.0049,0.3989 -0.0782,0.794 -0.2166,1.1682 -0.1046,0.2713 -0.2649,0.5178 -0.4706,0.7234 -0.2056,0.2056 -0.452,0.3659 -0.7234,0.4706 -0.3741,0.1384 -0.7692,0.2116 -1.1682,0.2165 -0.6631,0.03 -0.862,0.0366 -2.5419,0.0366 -1.6798,0 -1.8787,-0.0063 -2.5418,-0.0366 C 10.0598,18.1167 9.6647,18.0435 9.2906,17.9051 9.0192,17.8004 8.7728,17.6401 8.5672,17.4345 8.3615,17.2289 8.2012,16.9824 8.0966,16.7111 7.9582,16.3369 7.8849,15.9418 7.88,15.5429 7.8501,14.8794 7.8435,14.6805 7.8435,13.001 7.8435,11.3215 7.8498,11.1226 7.88,10.4591 7.8849,10.0602 7.9582,9.66508 8.0966,9.29092 8.2012,9.01958 8.3615,8.77317 8.5672,8.56753 8.7728,8.36189 9.0192,8.2016 9.2906,8.09695 9.6647,7.95852 10.0598,7.88527 10.4588,7.88039 11.1222,7.85043 11.3211,7.84384 13.0006,7.84384 Z m 0,-1.13345 c -1.7073,0 -1.9224,0.00719 -2.5934,0.03774 C 9.8852,6.75851 9.3686,6.85737 8.8796,7.04048 8.4601,7.19854 8.0801,7.44623 7.7662,7.76626 7.4459,8.08029 7.198,8.46047 7.0398,8.88025 6.8567,9.36928 6.7579,9.88582 6.7475,10.4079 c -0.03,0.6704 -0.0372,0.8854 -0.0372,2.5928 0,1.7074 0.0072,1.9225 0.0378,2.5934 0.0104,0.5221 0.1092,1.0386 0.2923,1.5277 0.158,0.4197 0.4057,0.7999 0.7258,1.114 0.3141,0.3201 0.6943,0.5678 1.114,0.7257 0.489,0.1832 1.0056,0.282 1.5276,0.2924 0.671,0.0299 0.8852,0.0377 2.5934,0.0377 1.7083,0 1.9225,-0.0072 2.5935,-0.0377 0.522,-0.0104 1.0386,-0.1092 1.5276,-0.2924 0.4177,-0.1619 0.7971,-0.4092 1.1138,-0.7261 0.3167,-0.3169 0.5637,-0.6964 0.7254,-1.1142 0.1831,-0.4891 0.2819,-1.0056 0.2923,-1.5277 0.03,-0.6703 0.0372,-0.8854 0.0372,-2.5928 0,-1.7074 -0.0072,-1.9224 -0.0378,-2.5934 C 19.2428,9.88522 19.144,9.36868 18.9609,8.87965 18.8029,8.45993 18.5552,8.07975 18.2351,7.76566 17.921,7.44555 17.5408,7.19786 17.1211,7.03988 16.6321,6.85677 16.1155,6.75792 15.5935,6.74753 14.9231,6.71758 14.708,6.71039 13.0006,6.71039 Z"
     fill="#f9fafc"
     id="path12" />
  <path
     d="m 13.002,9.77176 c -0.6389,0 -1.2635,0.18945 -1.7947,0.54444 -0.5312,0.3549 -0.9452,0.8594 -1.1897,1.4496 -0.2445,0.5903 -0.3084,1.2398 -0.1838,1.8664 0.1246,0.6266 0.4323,1.2022 0.884,1.6539 0.4518,0.4518 1.0274,0.7594 1.654,0.8841 0.6266,0.1246 1.2761,0.0606 1.8663,-0.1839 0.5903,-0.2445 1.0948,-0.6585 1.4497,-1.1897 0.3549,-0.5312 0.5444,-1.1557 0.5444,-1.7946 0,-0.8567 -0.3403,-1.6783 -0.9461,-2.2841 C 14.6803,10.1121 13.8587,9.77176 13.002,9.77176 Z m 0,5.32704 c -0.4147,0 -0.8201,-0.123 -1.1649,-0.3534 -0.3449,-0.2304 -0.6136,-0.5579 -0.7723,-0.941 -0.1587,-0.3831 -0.2002,-0.8047 -0.1193,-1.2115 0.0809,-0.4067 0.2806,-0.7803 0.5738,-1.0736 0.2933,-0.2932 0.6669,-0.4929 1.0736,-0.5738 0.4067,-0.0809 0.8283,-0.0394 1.2115,0.1193 0.3831,0.1587 0.7106,0.4275 0.941,0.7723 0.2304,0.3448 0.3533,0.7502 0.3533,1.1649 0,0.5561 -0.2209,1.0894 -0.6141,1.4826 -0.3932,0.3933 -0.9265,0.6142 -1.4826,0.6142 z"
     fill="#f9fafc"
     id="path14" />
  <path
     d="m 16.3592,10.3982 c 0.4169,0 0.7548,-0.3379 0.7548,-0.75481 0,-0.41689 -0.3379,-0.75484 -0.7548,-0.75484 -0.4169,0 -0.7548,0.33795 -0.7548,0.75484 0,0.41691 0.3379,0.75481 0.7548,0.75481 z"
     fill="#f9fafc"
     id="path16" />
</svg>
