<?xml version="1.0" encoding="UTF-8" standalone="no"?>
<svg
   width="26"
   height="26"
   viewBox="0 0 26 26"
   fill="none"
   version="1.1"
   id="svg22"
   sodipodi:docname="twitter.svg"
   inkscape:version="1.2.1 (9c6d41e410, 2022-07-14)"
   xmlns:inkscape="http://www.inkscape.org/namespaces/inkscape"
   xmlns:sodipodi="http://sodipodi.sourceforge.net/DTD/sodipodi-0.dtd"
   xmlns="http://www.w3.org/2000/svg"
   xmlns:svg="http://www.w3.org/2000/svg">
  <defs
     id="defs26" />
  <sodipodi:namedview
     id="namedview24"
     pagecolor="#ffffff"
     bordercolor="#666666"
     borderopacity="1.0"
     inkscape:showpageshadow="2"
     inkscape:pageopacity="0.0"
     inkscape:pagecheckerboard="0"
     inkscape:deskcolor="#d1d1d1"
     showgrid="false"
     inkscape:zoom="9"
     inkscape:cx="64"
     inkscape:cy="13.055556"
     inkscape:window-width="1920"
     inkscape:window-height="1017"
     inkscape:window-x="1912"
     inkscape:window-y="-8"
     inkscape:window-maximized="1"
     inkscape:current-layer="svg22" />
  <circle
     cx="13"
     cy="13"
     r="13"
     fill="#231f20"
     id="circle2" />
  <path
     d="m 18.7637,10.1986 c -0.3891,0.1729 -0.7998,0.281 -1.2321,0.3459 0.4323,-0.2594 0.7782,-0.67015 0.9295,-1.16733 -0.4107,0.23778 -0.8646,0.41071 -1.3618,0.51879 -0.3891,-0.4107 -0.9511,-0.6701 -1.5564,-0.6701 -1.1673,0 -2.1184,0.95114 -2.1184,2.11844 0,0.1729 0.0216,0.3242 0.0649,0.4755 C 11.7385,11.7333 10.1605,10.8903 9.10127,9.59334 8.92835,9.91758 8.82026,10.2634 8.82026,10.6525 c 0,0.735 0.36748,1.3835 0.95112,1.7726 C 9.42552,12.4034 9.10127,12.317 8.79865,12.1657 v 0.0216 c 0,1.0376 0.73495,1.9022 1.70765,2.0968 -0.1729,0.0432 -0.3674,0.0648 -0.56199,0.0648 -0.1297,0 -0.28101,-0.0216 -0.41071,-0.0432 0.28101,0.843 1.0592,1.4699 1.9887,1.4699 -0.735,0.562 -1.64284,0.9079 -2.63719,0.9079 -0.17293,0 -0.34586,0 -0.49717,-0.0217 0.95111,0.6053 2.05356,0.9512 3.26406,0.9512 3.9125,0 6.0525,-3.2425 6.0525,-6.0526 0,-0.0865 0,-0.1945 0,-0.281 0.4107,-0.281 0.7782,-0.6485 1.0592,-1.0808 z"
     fill="#f9fafc"
     id="path4" />
</svg>
