<svg width="48" height="48" viewBox="0 0 48 48" fill="none" xmlns="http://www.w3.org/2000/svg">
<path d="M24 48C37.2548 48 48 37.2548 48 24C48 10.7452 37.2548 0 24 0C10.7452 0 0 10.7452 0 24C0 37.2548 10.7452 48 24 48Z" fill="#231F20"/>
<path d="M26.1 10.14H16.58C16.14 10.14 15.79 10.49 15.79 10.93V38.94C15.79 39.38 16.14 39.73 16.58 39.73H21.52C21.96 39.73 22.31 39.38 22.31 38.94V34C22.31 33.56 22.66 33.21 23.1 33.21H26.1C32.46 33.21 37.52 27.92 37.52 21.48C37.52 15.04 32.46 10.14 26.1 10.14ZM31.05 25.76H22.25C21.67 25.76 21.28 25.15 21.54 24.62L25.94 15.55C26.23 14.96 27.07 14.96 27.36 15.55L31.76 24.62C32.02 25.14 31.63 25.76 31.05 25.76Z" fill="#F9FAFC"/>
</svg>
