<svg width="181" height="48" viewBox="0 0 181 48" fill="none" xmlns="http://www.w3.org/2000/svg">
<g clip-path="url(#clip0_7001_6359)">
<path d="M24.5 48C37.7548 48 48.5 37.2548 48.5 24C48.5 10.7452 37.7548 0 24.5 0C11.2452 0 0.5 10.7452 0.5 24C0.5 37.2548 11.2452 48 24.5 48Z" fill="url(#paint0_linear_7001_6359)"/>
<path d="M26.6 10.1399H17.08C16.64 10.1399 16.29 10.4899 16.29 10.9299V38.9399C16.29 39.3799 16.64 39.7299 17.08 39.7299H22.02C22.46 39.7299 22.81 39.3799 22.81 38.9399V33.9999C22.81 33.5599 23.16 33.2099 23.6 33.2099H26.6C32.96 33.2099 38.02 27.9199 38.02 21.4799C38.02 15.0399 32.96 10.1399 26.6 10.1399ZM31.55 25.7599H22.75C22.17 25.7599 21.78 25.1499 22.04 24.6199L26.44 15.5499C26.73 14.9599 27.57 14.9599 27.86 15.5499L32.26 24.6199C32.52 25.1399 32.13 25.7599 31.55 25.7599Z" fill="white"/>
<path d="M60.5 12.7002H68.33C73.16 12.7002 77 16.3002 77 21.3102C77 26.3202 73.16 30.2202 68.33 30.2202H65.45V35.1702H60.5V12.7002ZM68.21 25.3402C70.31 25.3402 72.05 23.8102 72.05 21.6502C72.05 19.4902 70.34 17.6002 68.21 17.6002H65.45V25.3402H68.21Z" fill="#231F20"/>
<path d="M84.7501 18.8201L84.9601 21.0701C85.9501 19.8401 87.7501 18.3701 89.9401 18.3701V23.2601C87.6601 23.2601 85.7101 24.1001 84.9601 25.9301V35.1701H80.0701V18.8201H84.7501Z" fill="#231F20"/>
<path d="M94.39 12.3701C95.86 12.3701 97.06 13.5701 97.06 15.0401C97.06 16.5101 95.86 17.6801 94.39 17.6801C92.92 17.6801 91.75 16.5101 91.75 15.0401C91.75 13.5701 92.92 12.3701 94.39 12.3701ZM96.85 18.8201V35.1801H91.96V18.8201H96.85Z" fill="#231F20"/>
<path d="M108.04 18.3701C112.75 18.3701 116.59 22.3001 116.59 26.9801C116.59 31.6601 112.75 35.5901 108.04 35.5901C103.33 35.5901 99.52 31.7201 99.52 26.9801C99.52 22.2401 103.33 18.3701 108.04 18.3701ZM108.04 30.9201C110.23 30.9201 111.97 29.1501 111.97 26.9301C111.97 24.7101 110.23 22.8801 108.04 22.8801C105.85 22.8801 104.17 24.7701 104.17 26.9301C104.17 29.0901 105.85 30.9201 108.04 30.9201Z" fill="#231F20"/>
<path d="M124.1 18.7002C124.1 19.4802 124.46 20.0502 127.19 21.0702C130.82 22.3902 134.48 24.5502 134.48 28.6602C134.48 32.2302 131.57 35.5902 127.13 35.5902C123.44 35.5902 120.74 34.0002 118.52 30.5202L122.09 27.7602C123.11 29.2602 125.09 30.7902 127.13 30.7002C128.45 30.6402 129.32 29.8002 129.29 28.9002C129.26 27.9102 127.49 26.6502 124.94 25.6902C121.58 24.4002 119.15 22.5402 119.15 18.7002C119.15 15.7602 121.7 12.4602 126.02 12.4602C128.42 12.4602 131.06 12.6102 134.15 16.1802L130.31 19.0302C128.63 17.3802 127.25 17.2302 126.02 17.2302C125 17.2302 124.1 17.9802 124.1 18.7002Z" fill="#231F20"/>
<path d="M145.32 18.3701C150.03 18.3701 153.87 22.3001 153.87 26.9801C153.87 31.6601 150.03 35.5901 145.32 35.5901C140.61 35.5901 136.8 31.7201 136.8 26.9801C136.8 22.2401 140.61 18.3701 145.32 18.3701ZM145.32 30.9201C147.51 30.9201 149.25 29.1501 149.25 26.9301C149.25 24.7101 147.51 22.8801 145.32 22.8801C143.13 22.8801 141.45 24.7701 141.45 26.9301C141.45 29.0901 143.13 30.9201 145.32 30.9201Z" fill="#231F20"/>
<path d="M161.23 18.8201L161.44 21.0701C162.43 19.8401 164.23 18.3701 166.42 18.3701V23.2601C164.14 23.2601 162.19 24.1001 161.44 25.9301V35.1701H156.55V18.8201H161.23Z" fill="#231F20"/>
<path d="M175.01 15.0701V18.8201H179.27V23.3801H175.01V30.3101C175.01 30.9101 175.16 31.2701 175.52 31.2701C176.06 31.2701 176.81 30.1901 177.05 29.8301L180.5 32.4101C178.79 34.6001 177.47 35.6201 175.52 35.6201C172.85 35.6201 170.12 33.9101 170.12 30.5801V23.3801H168.14V18.8201H170.12V15.0701H175.01Z" fill="#231F20"/>
</g>
<defs>
<linearGradient id="paint0_linear_7001_6359" x1="41.52" y1="41.02" x2="7.58" y2="7.08" gradientUnits="userSpaceOnUse">
<stop stop-color="#2D45EF"/>
<stop offset="1" stop-color="#576AF2"/>
</linearGradient>
<clipPath id="clip0_7001_6359">
<rect width="180" height="48" fill="white" transform="translate(0.5)"/>
</clipPath>
</defs>
</svg>
