<svg width="535" height="298" viewBox="0 0 535 298" fill="none" xmlns="http://www.w3.org/2000/svg">
<path d="M517.097 18.6254L498.467 0L479.807 18.6254C479.466 18.9746 479.235 19.4165 479.143 19.896C479.051 20.3755 479.103 20.8713 479.292 21.3216C479.48 21.7719 479.798 22.1568 480.204 22.4282C480.611 22.6996 481.088 22.8454 481.578 22.8476H492.107V39.1673H505.007V22.8476H515.447C515.933 22.8362 516.404 22.6818 516.801 22.4038C517.199 22.1258 517.505 21.7365 517.682 21.2852C517.858 20.8338 517.897 20.3404 517.793 19.8671C517.689 19.3938 517.447 18.9618 517.097 18.6254Z" fill="#2D45EF"/>
<path d="M517.097 108.519L498.467 89.8936L479.807 108.519C479.466 108.868 479.235 109.31 479.143 109.79C479.051 110.269 479.103 110.765 479.292 111.215C479.48 111.665 479.798 112.05 480.204 112.322C480.611 112.593 481.088 112.739 481.578 112.741H492.107V129.061H505.007V112.741H515.447C515.933 112.73 516.404 112.575 516.801 112.297C517.199 112.019 517.505 111.63 517.682 111.179C517.858 110.727 517.897 110.234 517.793 109.761C517.689 109.287 517.447 108.855 517.097 108.519Z" fill="#2D45EF"/>
<path d="M470.868 58.7215L452.208 40.126L433.578 58.7215C433.238 59.0688 433.007 59.508 432.914 59.9847C432.822 60.4615 432.871 60.9549 433.056 61.4041C433.241 61.8532 433.554 62.2384 433.956 62.512C434.358 62.7856 434.831 62.9357 435.318 62.9436H445.758V79.2634H458.658V62.9436H469.098C469.587 62.9415 470.064 62.7956 470.471 62.5242C470.878 62.2528 471.195 61.868 471.384 61.4177C471.573 60.9673 471.624 60.4715 471.533 59.992C471.441 59.5126 471.21 59.0707 470.868 58.7215Z" fill="#2D45EF"/>
<path d="M6.70772 117.382C20.6577 103.098 38.0277 118.999 48.7077 134.63C59.3877 150.261 61.4577 158.076 74.1777 155.142C86.8977 152.207 70.2477 139.511 70.2477 128.192C70.2477 116.873 88.9077 102.38 100.638 121.933C112.368 141.487 113.358 151.878 119.238 148.045C125.118 144.212 119.238 132.025 126.108 123.55C132.978 115.076 156.438 106.961 155.448 146.637C154.458 186.314 180.888 245.963 141.738 270.877C102.588 295.791 63.4677 274.321 41.9277 249.916C20.3877 225.511 14.5377 209.88 24.3177 203.023C34.0977 196.166 48.7677 214.761 55.6377 203.023C62.5077 191.285 39.1077 182.81 20.3877 168.497C1.66771 154.183 -7.00228 131.366 6.70772 117.382Z" fill="#0D1019"/>
<path d="M384.468 136.247C411.168 105.674 429.468 89.3544 439.248 101.242C449.028 113.13 444.138 119.958 425.568 134.63C406.998 149.303 415.758 151.729 430.458 145.62C445.158 139.511 462.828 145.051 444.198 165.234C425.568 185.416 399.378 199.43 418.338 199.76C437.298 200.089 444.138 201.047 437.298 214.732C430.458 228.416 417.738 240.364 384.468 250.006C351.198 259.648 319.878 210.18 384.468 136.247Z" fill="#0D1019"/>
<path d="M402.968 84.5928H136.948C134.739 84.5928 132.948 86.3836 132.948 88.5928V293.767C132.948 295.976 134.739 297.767 136.948 297.767H402.968C405.177 297.767 406.968 295.976 406.968 293.767V88.5928C406.968 86.3836 405.177 84.5928 402.968 84.5928Z" fill="#BDC7D1"/>
<path d="M409.837 66.2373H130.107C127.898 66.2373 126.107 68.0282 126.107 70.2373V97.2423C126.107 99.4515 127.898 101.242 130.107 101.242H409.837C412.047 101.242 413.837 99.4515 413.837 97.2423V70.2373C413.837 68.0282 412.047 66.2373 409.837 66.2373Z" fill="#2D45EF"/>
<path d="M155.448 35.0947H175.998V63.2425C175.998 68.6826 173.833 73.8999 169.979 77.7466C166.125 81.5934 160.898 83.7544 155.448 83.7544V35.0947Z" fill="#BDC7D1"/>
<path d="M185.778 35.0947H206.328V63.2425C206.328 68.6826 204.163 73.8999 200.309 77.7466C196.455 81.5934 191.228 83.7544 185.778 83.7544V35.0947Z" fill="#BDC7D1"/>
<path d="M333.558 35.0947H354.108V63.2425C354.108 68.6826 351.943 73.8999 348.089 77.7466C344.235 81.5934 339.008 83.7544 333.558 83.7544V35.0947Z" fill="#BDC7D1"/>
<path d="M363.888 35.0947H384.438V63.2425C384.438 68.6826 382.273 73.8999 378.419 77.7466C374.565 81.5934 369.338 83.7544 363.888 83.7544V35.0947Z" fill="#BDC7D1"/>
<path d="M205.418 118.221H189.778C187.569 118.221 185.778 120.012 185.778 122.221V137.817C185.778 140.026 187.569 141.817 189.778 141.817H205.418C207.627 141.817 209.418 140.026 209.418 137.817V122.221C209.418 120.012 207.627 118.221 205.418 118.221Z" fill="#FAFAFA"/>
<path d="M242.618 118.221H226.978C224.768 118.221 222.978 120.012 222.978 122.221V137.817C222.978 140.026 224.768 141.817 226.978 141.817H242.618C244.827 141.817 246.618 140.026 246.618 137.817V122.221C246.618 120.012 244.827 118.221 242.618 118.221Z" fill="#FAFAFA"/>
<path d="M279.818 118.221H264.178C261.969 118.221 260.178 120.012 260.178 122.221V137.817C260.178 140.026 261.969 141.817 264.178 141.817H279.818C282.027 141.817 283.818 140.026 283.818 137.817V122.221C283.818 120.012 282.027 118.221 279.818 118.221Z" fill="#FAFAFA"/>
<path d="M316.988 118.221H301.348C299.139 118.221 297.348 120.012 297.348 122.221V137.817C297.348 140.026 299.139 141.817 301.348 141.817H316.988C319.197 141.817 320.988 140.026 320.988 137.817V122.221C320.988 120.012 319.197 118.221 316.988 118.221Z" fill="#FAFAFA"/>
<path d="M354.188 118.221H338.548C336.339 118.221 334.548 120.012 334.548 122.221V137.817C334.548 140.026 336.339 141.817 338.548 141.817H354.188C356.397 141.817 358.188 140.026 358.188 137.817V122.221C358.188 120.012 356.397 118.221 354.188 118.221Z" fill="#FAFAFA"/>
<path d="M391.358 118.221H375.718C373.509 118.221 371.718 120.012 371.718 122.221V137.817C371.718 140.026 373.509 141.817 375.718 141.817H391.358C393.567 141.817 395.358 140.026 395.358 137.817V122.221C395.358 120.012 393.567 118.221 391.358 118.221Z" fill="#FAFAFA"/>
<path d="M168.248 154.273H152.608C150.399 154.273 148.608 156.064 148.608 158.273V173.87C148.608 176.079 150.399 177.87 152.608 177.87H168.248C170.457 177.87 172.248 176.079 172.248 173.87V158.273C172.248 156.064 170.457 154.273 168.248 154.273Z" fill="#FAFAFA"/>
<path d="M205.418 154.273H189.778C187.569 154.273 185.778 156.064 185.778 158.273V173.87C185.778 176.079 187.569 177.87 189.778 177.87H205.418C207.627 177.87 209.418 176.079 209.418 173.87V158.273C209.418 156.064 207.627 154.273 205.418 154.273Z" fill="#FAFAFA"/>
<path d="M242.618 154.273H226.978C224.768 154.273 222.978 156.064 222.978 158.273V173.87C222.978 176.079 224.768 177.87 226.978 177.87H242.618C244.827 177.87 246.618 176.079 246.618 173.87V158.273C246.618 156.064 244.827 154.273 242.618 154.273Z" fill="#2D45EF"/>
<path d="M279.818 154.273H264.178C261.969 154.273 260.178 156.064 260.178 158.273V173.87C260.178 176.079 261.969 177.87 264.178 177.87H279.818C282.027 177.87 283.818 176.079 283.818 173.87V158.273C283.818 156.064 282.027 154.273 279.818 154.273Z" fill="#FAFAFA"/>
<path d="M316.988 154.273H301.348C299.139 154.273 297.348 156.064 297.348 158.273V173.87C297.348 176.079 299.139 177.87 301.348 177.87H316.988C319.197 177.87 320.988 176.079 320.988 173.87V158.273C320.988 156.064 319.197 154.273 316.988 154.273Z" fill="#FAFAFA"/>
<path d="M354.188 154.273H338.548C336.339 154.273 334.548 156.064 334.548 158.273V173.87C334.548 176.079 336.339 177.87 338.548 177.87H354.188C356.397 177.87 358.188 176.079 358.188 173.87V158.273C358.188 156.064 356.397 154.273 354.188 154.273Z" fill="#FAFAFA"/>
<path d="M391.358 154.273H375.718C373.509 154.273 371.718 156.064 371.718 158.273V173.87C371.718 176.079 373.509 177.87 375.718 177.87H391.358C393.567 177.87 395.358 176.079 395.358 173.87V158.273C395.358 156.064 393.567 154.273 391.358 154.273Z" fill="#FAFAFA"/>
<path d="M168.248 190.356H152.608C150.399 190.356 148.608 192.147 148.608 194.356V209.953C148.608 212.162 150.399 213.953 152.608 213.953H168.248C170.457 213.953 172.248 212.162 172.248 209.953V194.356C172.248 192.147 170.457 190.356 168.248 190.356Z" fill="#FAFAFA"/>
<path d="M205.418 190.356H189.778C187.569 190.356 185.778 192.147 185.778 194.356V209.953C185.778 212.162 187.569 213.953 189.778 213.953H205.418C207.627 213.953 209.418 212.162 209.418 209.953V194.356C209.418 192.147 207.627 190.356 205.418 190.356Z" fill="#FAFAFA"/>
<path d="M242.618 190.356H226.978C224.768 190.356 222.978 192.147 222.978 194.356V209.953C222.978 212.162 224.768 213.953 226.978 213.953H242.618C244.827 213.953 246.618 212.162 246.618 209.953V194.356C246.618 192.147 244.827 190.356 242.618 190.356Z" fill="#FAFAFA"/>
<path d="M279.818 190.356H264.178C261.969 190.356 260.178 192.147 260.178 194.356V209.953C260.178 212.162 261.969 213.953 264.178 213.953H279.818C282.027 213.953 283.818 212.162 283.818 209.953V194.356C283.818 192.147 282.027 190.356 279.818 190.356Z" fill="#FAFAFA"/>
<path d="M316.988 190.356H301.348C299.139 190.356 297.348 192.147 297.348 194.356V209.953C297.348 212.162 299.139 213.953 301.348 213.953H316.988C319.197 213.953 320.988 212.162 320.988 209.953V194.356C320.988 192.147 319.197 190.356 316.988 190.356Z" fill="#FAFAFA"/>
<path d="M354.188 190.356H338.548C336.339 190.356 334.548 192.147 334.548 194.356V209.953C334.548 212.162 336.339 213.953 338.548 213.953H354.188C356.397 213.953 358.188 212.162 358.188 209.953V194.356C358.188 192.147 356.397 190.356 354.188 190.356Z" fill="#FAFAFA"/>
<path d="M391.358 190.356H375.718C373.509 190.356 371.718 192.147 371.718 194.356V209.953C371.718 212.162 373.509 213.953 375.718 213.953H391.358C393.567 213.953 395.358 212.162 395.358 209.953V194.356C395.358 192.147 393.567 190.356 391.358 190.356Z" fill="#FAFAFA"/>
<path d="M168.248 226.41H152.608C150.399 226.41 148.608 228.201 148.608 230.41V246.006C148.608 248.216 150.399 250.006 152.608 250.006H168.248C170.457 250.006 172.248 248.216 172.248 246.006V230.41C172.248 228.201 170.457 226.41 168.248 226.41Z" fill="#FAFAFA"/>
<path d="M205.418 226.41H189.778C187.569 226.41 185.778 228.201 185.778 230.41V246.006C185.778 248.216 187.569 250.006 189.778 250.006H205.418C207.627 250.006 209.418 248.216 209.418 246.006V230.41C209.418 228.201 207.627 226.41 205.418 226.41Z" fill="#FAFAFA"/>
<path d="M242.618 226.41H226.978C224.768 226.41 222.978 228.201 222.978 230.41V246.006C222.978 248.216 224.768 250.006 226.978 250.006H242.618C244.827 250.006 246.618 248.216 246.618 246.006V230.41C246.618 228.201 244.827 226.41 242.618 226.41Z" fill="#FAFAFA"/>
<path d="M279.818 226.41H264.178C261.969 226.41 260.178 228.201 260.178 230.41V246.006C260.178 248.216 261.969 250.006 264.178 250.006H279.818C282.027 250.006 283.818 248.216 283.818 246.006V230.41C283.818 228.201 282.027 226.41 279.818 226.41Z" fill="#FAFAFA"/>
<path d="M316.988 226.41H301.348C299.139 226.41 297.348 228.201 297.348 230.41V246.006C297.348 248.216 299.139 250.006 301.348 250.006H316.988C319.197 250.006 320.988 248.216 320.988 246.006V230.41C320.988 228.201 319.197 226.41 316.988 226.41Z" fill="#FAFAFA"/>
<path d="M354.188 226.41H338.548C336.339 226.41 334.548 228.201 334.548 230.41V246.006C334.548 248.216 336.339 250.006 338.548 250.006H354.188C356.397 250.006 358.188 248.216 358.188 246.006V230.41C358.188 228.201 356.397 226.41 354.188 226.41Z" fill="#FAFAFA"/>
<path d="M391.358 226.41H375.718C373.509 226.41 371.718 228.201 371.718 230.41V246.006C371.718 248.216 373.509 250.006 375.718 250.006H391.358C393.567 250.006 395.358 248.216 395.358 246.006V230.41C395.358 228.201 393.567 226.41 391.358 226.41Z" fill="#FAFAFA"/>
<path d="M168.248 262.463H152.608C150.399 262.463 148.608 264.254 148.608 266.463V282.059C148.608 284.268 150.399 286.059 152.608 286.059H168.248C170.457 286.059 172.248 284.268 172.248 282.059V266.463C172.248 264.254 170.457 262.463 168.248 262.463Z" fill="#FAFAFA"/>
<path d="M205.418 262.463H189.778C187.569 262.463 185.778 264.254 185.778 266.463V282.059C185.778 284.268 187.569 286.059 189.778 286.059H205.418C207.627 286.059 209.418 284.268 209.418 282.059V266.463C209.418 264.254 207.627 262.463 205.418 262.463Z" fill="#FAFAFA"/>
<path d="M242.618 262.463H226.978C224.768 262.463 222.978 264.254 222.978 266.463V282.059C222.978 284.268 224.768 286.059 226.978 286.059H242.618C244.827 286.059 246.618 284.268 246.618 282.059V266.463C246.618 264.254 244.827 262.463 242.618 262.463Z" fill="#FAFAFA"/>
<path d="M279.818 262.463H264.178C261.969 262.463 260.178 264.254 260.178 266.463V282.059C260.178 284.268 261.969 286.059 264.178 286.059H279.818C282.027 286.059 283.818 284.268 283.818 282.059V266.463C283.818 264.254 282.027 262.463 279.818 262.463Z" fill="#FAFAFA"/>
<path d="M490.158 239.885C514.48 239.885 534.198 220.204 534.198 195.926C534.198 171.649 514.48 151.968 490.158 151.968C465.835 151.968 446.118 171.649 446.118 195.926C446.118 220.204 465.835 239.885 490.158 239.885Z" fill="#0D1019"/>
<path d="M490.158 227.008C507.356 227.008 521.298 213.092 521.298 195.926C521.298 178.76 507.356 164.844 490.158 164.844C472.959 164.844 459.018 178.76 459.018 195.926C459.018 213.092 472.959 227.008 490.158 227.008Z" fill="#FAFAFA"/>
<path d="M502.098 212.126C501.821 212.122 501.548 212.061 501.295 211.948C501.042 211.835 500.815 211.671 500.628 211.467L487.578 196.795C487.246 196.436 487.064 195.965 487.068 195.477V176.882C487.068 176.357 487.277 175.855 487.648 175.484C488.019 175.113 488.523 174.905 489.048 174.905C489.573 174.905 490.077 175.113 490.448 175.484C490.819 175.855 491.028 176.357 491.028 176.882V194.639L503.598 208.832C503.943 209.226 504.118 209.74 504.084 210.262C504.051 210.784 503.811 211.271 503.418 211.617C503.054 211.941 502.585 212.122 502.098 212.126Z" fill="#2D45EF"/>
</svg>
