<svg width="144" height="144" viewBox="0 0 144 144" fill="none" xmlns="http://www.w3.org/2000/svg">
<circle cx="72" cy="72" r="72" fill="url(#paint0_linear_5807_34341)"/>
<path d="M96.8002 66.8798C96.0509 65.9802 95.1132 65.256 94.0535 64.7584C92.9937 64.2608 91.8376 64.0018 90.6668 63.9998H78.5068L80.0002 60.1865C80.6213 58.5168 80.8282 56.7214 80.603 54.9542C80.3778 53.1871 79.7273 51.5009 78.7073 50.0404C77.6873 48.5799 76.3282 47.3886 74.7467 46.5687C73.1651 45.7488 71.4083 45.3248 69.6268 45.3331C69.1139 45.3342 68.6121 45.4832 68.1817 45.7623C67.7513 46.0413 67.4105 46.4386 67.2002 46.9065L59.6002 63.9998H53.3335C51.2118 63.9998 49.1769 64.8426 47.6766 66.3429C46.1764 67.8432 45.3335 69.8781 45.3335 71.9998V90.6665C45.3335 92.7882 46.1764 94.823 47.6766 96.3233C49.1769 97.8236 51.2118 98.6665 53.3335 98.6665H87.2802C89.1517 98.6658 90.9637 98.0091 92.401 96.8105C93.8383 95.6119 94.81 93.9474 95.1468 92.1065L98.5335 73.4398C98.743 72.2861 98.6963 71.1005 98.3968 69.9669C98.0972 68.8333 97.5522 67.7794 96.8002 66.8798ZM58.6668 93.3331H53.3335C52.6263 93.3331 51.948 93.0522 51.4479 92.5521C50.9478 92.052 50.6668 91.3737 50.6668 90.6665V71.9998C50.6668 71.2926 50.9478 70.6143 51.4479 70.1142C51.948 69.6141 52.6263 69.3331 53.3335 69.3331H58.6668V93.3331ZM93.3335 72.4798L89.9468 91.1465C89.8332 91.7677 89.5029 92.3284 89.0145 92.7289C88.5262 93.1293 87.9116 93.3434 87.2802 93.3331H64.0002V67.2265L71.2535 50.9065C72.0001 51.1241 72.6935 51.4942 73.2899 51.9933C73.8863 52.4925 74.3728 53.1098 74.7186 53.8064C75.0644 54.503 75.262 55.2638 75.299 56.0406C75.336 56.8174 75.2115 57.5935 74.9335 58.3198L73.5202 62.1331C73.219 62.9391 73.1173 63.8061 73.2238 64.6599C73.3303 65.5137 73.6418 66.3291 74.1317 67.0364C74.6216 67.7438 75.2754 68.3221 76.0372 68.722C76.7991 69.122 77.6464 69.3316 78.5068 69.3331H90.6668C91.0586 69.3325 91.4457 69.4182 91.8006 69.5841C92.1555 69.75 92.4694 69.9921 92.7202 70.2931C92.9771 70.59 93.1652 70.9399 93.2712 71.3179C93.3773 71.6959 93.3985 72.0926 93.3335 72.4798Z" fill="#F9FAFC"/>
<defs>
<linearGradient id="paint0_linear_5807_34341" x1="111.541" y1="132.197" x2="34.8197" y2="9.7377" gradientUnits="userSpaceOnUse">
<stop stop-color="#2D45EF"/>
<stop offset="1" stop-color="#6C7DF4"/>
</linearGradient>
</defs>
</svg>
