<svg width="144" height="144" viewBox="0 0 144 144" fill="none" xmlns="http://www.w3.org/2000/svg">
<circle cx="72" cy="72" r="72" fill="url(#paint0_linear_5807_34336)"/>
<path d="M26.9794 89H21.3885L33.951 54.0909H40.0362L52.5987 89H47.0078L37.1385 60.4318H36.8658L26.9794 89ZM27.9169 75.3295H46.0533V79.7614H27.9169V75.3295Z" fill="#F9FAFC"/>
<path d="M96.1321 89V54.0909H108.916C111.393 54.0909 113.445 54.5 115.07 55.3182C116.695 56.125 117.911 57.2216 118.717 58.608C119.524 59.983 119.928 61.5341 119.928 63.2614C119.928 64.7159 119.661 65.9432 119.126 66.9432C118.592 67.9318 117.876 68.7273 116.979 69.3295C116.092 69.9205 115.115 70.3523 114.047 70.625V70.9659C115.206 71.0227 116.337 71.3977 117.439 72.0909C118.553 72.7727 119.473 73.7443 120.2 75.0057C120.928 76.267 121.291 77.8011 121.291 79.608C121.291 81.392 120.871 82.9943 120.03 84.4148C119.2 85.8239 117.916 86.9432 116.178 87.7727C114.439 88.5909 112.217 89 109.513 89H96.1321ZM101.399 84.483H109.001C111.524 84.483 113.331 83.9943 114.422 83.017C115.513 82.0398 116.058 80.8182 116.058 79.3523C116.058 78.25 115.78 77.2386 115.223 76.3182C114.666 75.3977 113.871 74.6648 112.837 74.1193C111.814 73.5739 110.598 73.3011 109.189 73.3011H101.399V84.483ZM101.399 69.1932H108.456C109.638 69.1932 110.7 68.9659 111.643 68.5114C112.598 68.0568 113.354 67.4205 113.911 66.6023C114.479 65.7727 114.763 64.7955 114.763 63.6705C114.763 62.2273 114.257 61.017 113.246 60.0398C112.234 59.0625 110.683 58.5739 108.592 58.5739H101.399V69.1932Z" fill="#F9FAFC"/>
<line x1="74" y1="30" x2="74" y2="114" stroke="#F9FAFC" stroke-width="4" stroke-linecap="round"/>
<defs>
<linearGradient id="paint0_linear_5807_34336" x1="111.541" y1="132.197" x2="34.8197" y2="9.7377" gradientUnits="userSpaceOnUse">
<stop stop-color="#2D45EF"/>
<stop offset="1" stop-color="#6C7DF4"/>
</linearGradient>
</defs>
</svg>
