<svg width="144" height="144" viewBox="0 0 144 144" fill="none" xmlns="http://www.w3.org/2000/svg">
<circle cx="72" cy="72" r="72" fill="url(#paint0_linear_5807_34332)"/>
<path d="M63.2268 60.5601L69.3335 54.4267V80C69.3335 80.7073 69.6144 81.3856 70.1145 81.8857C70.6146 82.3858 71.2929 82.6667 72.0002 82.6667C72.7074 82.6667 73.3857 82.3858 73.8858 81.8857C74.3859 81.3856 74.6668 80.7073 74.6668 80V54.4267L80.7735 60.5601C81.0214 60.81 81.3163 61.0084 81.6413 61.1438C81.9663 61.2791 82.3148 61.3488 82.6668 61.3488C83.0189 61.3488 83.3674 61.2791 83.6924 61.1438C84.0173 61.0084 84.3123 60.81 84.5602 60.5601C84.8101 60.3121 85.0085 60.0172 85.1439 59.6923C85.2793 59.3673 85.349 59.0187 85.349 58.6667C85.349 58.3147 85.2793 57.9661 85.1439 57.6412C85.0085 57.3162 84.8101 57.0213 84.5602 56.7734L73.8935 46.1067C73.6399 45.8639 73.3408 45.6736 73.0135 45.5467C72.3643 45.28 71.6361 45.28 70.9868 45.5467C70.6595 45.6736 70.3604 45.8639 70.1068 46.1067L59.4402 56.7734C59.1915 57.022 58.9943 57.3172 58.8597 57.6421C58.7252 57.9669 58.6559 58.3151 58.6559 58.6667C58.6559 59.0183 58.7252 59.3665 58.8597 59.6914C58.9943 60.0162 59.1915 60.3114 59.4402 60.5601C59.6888 60.8087 59.984 61.0059 60.3088 61.1405C60.6337 61.275 60.9819 61.3443 61.3335 61.3443C61.6851 61.3443 62.0333 61.275 62.3582 61.1405C62.683 61.0059 62.9782 60.8087 63.2268 60.5601ZM96.0002 77.3334C95.2929 77.3334 94.6146 77.6143 94.1145 78.1144C93.6144 78.6145 93.3335 79.2928 93.3335 80V90.6667C93.3335 91.374 93.0525 92.0522 92.5525 92.5523C92.0524 93.0524 91.3741 93.3334 90.6668 93.3334H53.3335C52.6263 93.3334 51.948 93.0524 51.4479 92.5523C50.9478 92.0522 50.6668 91.374 50.6668 90.6667V80C50.6668 79.2928 50.3859 78.6145 49.8858 78.1144C49.3857 77.6143 48.7074 77.3334 48.0002 77.3334C47.2929 77.3334 46.6146 77.6143 46.1145 78.1144C45.6144 78.6145 45.3335 79.2928 45.3335 80V90.6667C45.3335 92.7885 46.1764 94.8233 47.6766 96.3236C49.1769 97.8239 51.2118 98.6667 53.3335 98.6667H90.6668C92.7886 98.6667 94.8234 97.8239 96.3237 96.3236C97.824 94.8233 98.6668 92.7885 98.6668 90.6667V80C98.6668 79.2928 98.3859 78.6145 97.8858 78.1144C97.3857 77.6143 96.7074 77.3334 96.0002 77.3334Z" fill="#F9FAFC"/>
<defs>
<linearGradient id="paint0_linear_5807_34332" x1="111.541" y1="132.197" x2="34.8197" y2="9.7377" gradientUnits="userSpaceOnUse">
<stop stop-color="#2D45EF"/>
<stop offset="1" stop-color="#6C7DF4"/>
</linearGradient>
</defs>
</svg>
