<svg width="266" height="270" viewBox="0 0 266 270" fill="none" xmlns="http://www.w3.org/2000/svg">
<path d="M266 145.189C266 154.974 264.864 164.496 262.712 173.633C261.151 180.274 259.054 186.712 256.467 192.898C256.362 193.155 256.255 193.41 256.147 193.665C253.573 199.71 250.532 205.514 247.068 211.029C246.931 211.25 246.792 211.469 246.651 211.685C243.205 217.103 239.348 222.239 235.123 227.049C212.032 253.364 178.001 270 140.047 270C126.59 270 113.628 267.909 101.471 264.035C95.2962 262.072 89.3291 259.646 83.614 256.801C83.3804 256.687 83.1495 256.57 82.9212 256.453C75.6894 252.802 68.8617 248.478 62.522 243.561C62.3042 243.394 62.0864 243.225 61.8686 243.051C56.5759 238.898 51.6322 234.33 47.0822 229.397C26.5911 207.199 14.0928 177.64 14.0928 145.189C14.0928 135.064 15.3103 125.222 17.6064 115.796C24.2845 88.3791 40.097 64.4934 61.6744 47.4801C83.1836 30.5136 110.421 20.3779 140.047 20.3779C145.457 20.3779 150.787 20.716 156.016 21.3738C177.93 24.1197 198.088 32.4456 214.997 44.8747C215.275 45.0775 215.551 45.2829 215.826 45.4909C215.826 45.4883 215.826 45.4909 215.826 45.4909C216.92 46.3074 218.001 47.1421 219.067 47.9949C219.337 48.2108 219.607 48.4266 219.875 48.6476C224.803 52.6494 229.416 57.0177 233.675 61.7085C253.77 83.8209 265.998 113.089 265.998 145.189H266Z" fill="url(#paint0_linear_5807_34223)"/>
<path d="M140.047 264.797C206.711 264.797 260.753 211.246 260.753 145.187C260.753 79.1276 206.711 25.5762 140.047 25.5762C73.3836 25.5762 19.3418 79.1276 19.3418 145.187C19.3418 211.246 73.3836 264.797 140.047 264.797Z" fill="url(#paint1_linear_5807_34223)"/>
<g filter="url(#filter0_di_5807_34223)">
<path d="M262.713 173.633C261.151 180.274 259.055 186.712 256.467 192.898C256.362 193.155 256.255 193.41 256.147 193.665C253.573 199.711 250.532 205.514 247.068 211.029C246.932 211.25 246.793 211.469 246.651 211.685C243.206 217.104 239.348 222.239 235.123 227.049L225.436 229.73H225.433L111.164 261.352L101.471 264.035C95.2964 262.072 89.3294 259.646 83.6142 256.801C83.3807 256.687 83.1498 256.57 82.9215 256.453C75.6897 252.802 68.8619 248.478 62.5222 243.561C62.3044 243.394 62.0867 243.225 61.8689 243.051C56.5762 238.899 51.6325 234.33 47.0824 229.397L44.049 217.707L20.6505 127.523L17.6066 115.796L6.31801 72.2813C5.0506 67.3955 7.68513 62.4212 12.2011 61.1705L61.6747 47.4803L76.7996 43.2939L140.8 25.5838L156.017 21.374L210.531 6.28751C215.05 5.0368 219.739 7.98285 221.006 12.8687L233.678 61.7088L236.766 73.6152L259.614 161.682L262.713 173.633Z" fill="#E1E2E3"/>
<path d="M116.094 48.7441L114.538 49.1758L113.832 59.7145L115.26 59.3193L115.414 56.5396L115.488 55.2057L115.737 50.7229L115.808 50.7021L118.193 54.4568L118.902 55.5749L120.379 57.9021L121.806 57.5069L116.094 48.7441ZM119.154 54.1916L118.193 54.4568L115.488 55.2057L114.52 55.4735L114.837 56.6982L115.414 56.5396L118.902 55.5749L119.474 55.4163L119.154 54.1916Z" fill="#231F20"/>
<path d="M124.576 51.4064C123.526 47.3553 120.062 44.6562 116.339 44.6562C115.654 44.6562 114.961 44.7473 114.274 44.9371C109.839 46.1644 107.241 51.0658 108.485 55.8606C109.537 59.9118 112.998 62.6108 116.722 62.6108C117.407 62.6108 118.099 62.5198 118.787 62.33C123.222 61.1027 125.819 56.2039 124.576 51.4064ZM118.721 62.0778C114.421 63.2687 109.939 60.45 108.729 55.793C107.522 51.136 110.038 46.3802 114.339 45.1893C118.643 43.9984 123.124 46.8196 124.332 51.474C125.541 56.1311 123.022 60.8869 118.721 62.0778Z" fill="url(#paint2_linear_5807_34223)"/>
<path d="M121.122 71.3266L214.155 45.5818C216.414 44.9577 218.757 46.4295 219.392 48.8737L226.278 75.4142L129.157 102.29L121.125 71.3266H121.122Z" fill="white"/>
<path d="M148.751 74.3485L195.779 61.3344C196.907 61.0223 198.08 61.7582 198.397 62.9803C198.715 64.2024 198.056 65.4453 196.925 65.7573L149.897 78.7715C148.769 79.0835 147.596 78.3476 147.279 77.1255C146.961 75.9034 147.62 74.6605 148.751 74.3485Z" fill="#C5C6C7"/>
<path d="M150.472 80.9843L177.053 73.6283C178.182 73.3163 179.355 74.0521 179.672 75.2742C179.99 76.4964 179.331 77.7393 178.2 78.0513L151.618 85.4073C150.49 85.7194 149.317 84.9835 149 83.7614C148.682 82.5393 149.341 81.2964 150.472 80.9843Z" fill="#C5C6C7"/>
<path d="M219.877 48.6476C219.229 46.3048 217.175 44.7758 214.997 44.8746C214.669 44.8876 214.338 44.9396 214.007 45.0307L208.389 46.5856L120.978 70.7755L121.119 71.3268L121.264 71.8806H121.266L209.615 47.4307L214.296 46.1358C216.272 45.5897 218.324 46.8794 218.878 49.0168L219.389 48.8738L219.901 48.7334C219.893 48.7048 219.885 48.6762 219.877 48.6476ZM226.275 75.4169V75.4143L225.624 75.0035L129.012 101.739L129.157 102.29L129.235 102.592L129.301 102.844L129.545 102.777L225.91 76.1112L226.422 75.9682L226.931 75.8277L226.277 75.4169H226.275ZM226.928 75.8277L226.784 75.2739L222.187 57.5429L219.901 48.7334C219.893 48.7048 219.885 48.6762 219.877 48.6476C219.229 46.3048 217.175 44.7758 214.997 44.8746C214.669 44.8876 214.338 44.9396 214.007 45.0307L214.152 45.5819L214.296 46.1358C216.272 45.5897 218.324 46.8794 218.878 49.0168L220.754 56.248L225.621 75.0035L129.01 101.739L129.154 102.29L225.763 75.5573L226.099 75.4637L226.272 75.4143L226.926 75.8277H226.928Z" fill="black"/>
<path d="M25.1478 102.626C24.5128 100.182 25.8301 97.6961 28.0894 97.072L121.122 71.3271L129.154 102.291L32.0333 129.167L25.1478 102.626Z" fill="#E1E2E3"/>
<path d="M51.63 101.224L98.658 88.2103C99.7863 87.8983 100.959 88.6342 101.277 89.8563C101.594 91.0784 100.936 92.3213 99.8047 92.6333L52.7767 105.647C51.6483 105.959 50.4754 105.224 50.1579 104.002C49.8404 102.779 50.499 101.536 51.63 101.224Z" fill="#C5C6C7"/>
<path d="M53.3507 107.86L79.9322 100.504C81.0605 100.192 82.2335 100.928 82.551 102.15C82.8685 103.372 82.2098 104.615 81.0789 104.927L54.4974 112.283C53.3691 112.595 52.1961 111.859 51.8786 110.637C51.5611 109.415 52.2197 108.172 53.3507 107.86Z" fill="#C5C6C7"/>
<path d="M121.119 71.3266L120.978 70.7754L30.0103 95.9482L27.9452 96.5203C25.4051 97.2223 23.9252 100.02 24.6363 102.769L25.148 102.628L25.6596 102.485C25.1033 100.348 26.2579 98.1714 28.2338 97.6253L29.4015 97.3029L121.264 71.8805L121.119 71.3266ZM129.233 102.594L129.154 102.29L129.01 101.739L32.4008 128.474L32.0334 129.166L31.6661 129.863L32.1777 129.723L32.6894 129.58L129.055 102.912L129.299 102.844L129.233 102.594ZM129.01 101.739L32.4008 128.474L26.3183 105.02L25.6596 102.485C25.1033 100.348 26.2579 98.1714 28.2338 97.6253L28.0895 97.0715L27.9452 96.5203C25.4051 97.2223 23.9252 100.02 24.6363 102.769L25.6859 106.817L31.5217 129.309L31.6661 129.863L32.0334 129.169L32.5451 129.028L129.154 102.29L129.01 101.739Z" fill="black"/>
<path d="M128.701 101.539L121.091 72.2107L121.576 72.0781L129.186 101.406L128.701 101.539Z" fill="#DEDEDE"/>
<path d="M129.154 102.29L226.275 75.4141L234.307 106.378L137.186 133.254L129.154 102.29Z" fill="white"/>
<path d="M156.783 105.312L203.811 92.2982C204.939 91.9862 206.112 92.7221 206.43 93.9442C206.747 95.1663 206.088 96.4092 204.957 96.7212L157.93 109.735C156.801 110.047 155.628 109.312 155.311 108.089C154.993 106.867 155.652 105.624 156.783 105.312Z" fill="#C5C6C7"/>
<path d="M158.507 111.948L185.088 104.592C186.217 104.28 187.39 105.016 187.707 106.238C188.025 107.46 187.366 108.703 186.235 109.015L159.654 116.371C158.525 116.683 157.352 115.947 157.035 114.725C156.717 113.503 157.376 112.26 158.507 111.948Z" fill="#C5C6C7"/>
<path d="M234.819 106.238L234.307 106.378L234.384 106.67L234.452 106.932L234.963 106.792L234.819 106.238ZM226.787 75.2744H226.784L226.275 75.4148L226.099 75.4642L225.764 75.5578L225.908 76.1117L233.654 105.967L137.045 132.703L137.189 133.257L233.798 106.519L234.307 106.381H234.31L234.819 106.238L226.787 75.2744ZM234.384 106.67L234.31 106.381H234.307L234.166 105.827L233.654 105.967L137.045 132.703L137.189 133.257L137.265 133.559H137.268L137.331 133.808L137.575 133.741L233.943 107.073L234.452 106.932L234.384 106.67Z" fill="black"/>
<path d="M32.0332 129.166L129.154 102.29L137.186 133.254L40.0654 160.13L32.0332 129.166Z" fill="#E1E2E3"/>
<path d="M59.6651 132.188L106.693 119.174C107.821 118.862 108.994 119.598 109.312 120.82C109.629 122.042 108.971 123.285 107.84 123.597L60.8118 136.611C59.6835 136.923 58.5106 136.187 58.1931 134.965C57.8755 133.743 58.5342 132.5 59.6651 132.188Z" fill="#C5C6C7"/>
<path d="M61.3858 138.824L87.9673 131.468C89.0957 131.156 90.2686 131.892 90.5861 133.114C90.9036 134.336 90.245 135.579 89.114 135.891L62.5325 143.247C61.4042 143.559 60.2313 142.823 59.9138 141.601C59.5962 140.379 60.2549 139.136 61.3858 138.824Z" fill="#C5C6C7"/>
<path d="M40.068 160.132L39.5563 160.273L39.7006 160.827L40.2097 160.684L40.068 160.132ZM137.268 133.558H137.265L137.189 133.256L137.044 132.702L40.4327 159.438L39.9236 159.578L40.068 160.13L40.2097 160.684L40.7214 160.543L137.089 133.875L137.33 133.808L137.268 133.558ZM137.044 132.702L40.4327 159.438L32.6892 129.58L32.5449 129.028L32.0332 129.166L31.5215 129.309L31.6658 129.863L39.5563 160.273L40.068 160.132L40.577 159.992L137.189 133.256L137.044 132.702Z" fill="black"/>
<path d="M136.733 132.505L128.989 102.66L129.477 102.524L137.221 132.37L136.733 132.505Z" fill="#DEDEDE"/>
<path d="M137.189 133.254L234.31 106.378L242.342 137.341L145.222 164.217L137.189 133.254Z" fill="white"/>
<path d="M164.817 136.275L211.845 123.261C212.974 122.949 214.147 123.685 214.464 124.907C214.782 126.129 214.123 127.372 212.992 127.684L165.964 140.698C164.836 141.01 163.663 140.274 163.345 139.052C163.028 137.83 163.687 136.587 164.817 136.275Z" fill="#C5C6C7"/>
<path d="M166.539 142.911L193.121 135.555C194.249 135.243 195.422 135.979 195.739 137.201C196.057 138.423 195.398 139.666 194.267 139.978L167.686 147.334C166.558 147.646 165.385 146.91 165.067 145.688C164.75 144.466 165.408 143.223 166.539 142.911Z" fill="#C5C6C7"/>
<path d="M242.854 137.201L242.342 137.344L242.487 137.895L242.996 137.755L242.854 137.201ZM234.964 106.791L234.819 106.237L234.31 106.38H234.307L233.798 106.521L233.943 107.072L241.686 136.93L145.077 163.666L145.221 164.22L241.831 137.484L242.342 137.344L242.854 137.201L234.964 106.791ZM242.342 137.344L242.198 136.79L241.686 136.93L145.077 163.666L145.221 164.22L145.3 164.521L145.366 164.771L145.61 164.703L241.975 138.038L242.487 137.895L242.342 137.344Z" fill="black"/>
<path d="M40.0684 160.13L137.189 133.254L145.221 164.217L48.1005 191.093L40.0684 160.13Z" fill="#E1E2E3"/>
<path d="M67.6964 163.151L114.724 150.137C115.853 149.825 117.026 150.561 117.343 151.783C117.661 153.005 117.002 154.248 115.871 154.56L68.8431 167.574C67.7148 167.886 66.5418 167.15 66.2243 165.928C65.9068 164.706 66.5654 163.463 67.6964 163.151Z" fill="#C5C6C7"/>
<path d="M69.4181 169.787L95.9996 162.431C97.1279 162.119 98.3008 162.855 98.6183 164.077C98.9358 165.299 98.2772 166.542 97.1463 166.854L70.5648 174.21C69.4364 174.522 68.2635 173.786 67.946 172.564C67.6285 171.342 68.2871 170.099 69.4181 169.787Z" fill="#C5C6C7"/>
<path d="M48.1005 191.096L47.5888 191.237L47.7331 191.79L48.2448 191.65L48.1005 191.096ZM145.3 164.522L145.221 164.22L145.077 163.666L48.4679 190.402L47.9588 190.542L48.1005 191.096L48.2448 191.65L48.7565 191.51L145.122 164.839L145.366 164.771L145.3 164.522ZM145.077 163.666L48.4679 190.402L40.7217 160.543L40.5774 159.992L40.0683 160.13L39.5566 160.273L39.701 160.827L47.5888 191.237L48.1005 191.096L48.6122 190.956L145.221 164.22L145.077 163.666Z" fill="black"/>
<path d="M144.767 163.469L137.023 133.623L137.509 133.488L145.252 163.334L144.767 163.469Z" fill="#DEDEDE"/>
<path d="M145.221 164.218L242.342 137.342L249.227 163.882C249.862 166.324 248.545 168.812 246.286 169.436L153.253 195.181L145.221 164.218Z" fill="white"/>
<path d="M172.85 167.239L219.878 154.225C221.006 153.913 222.179 154.649 222.496 155.871C222.814 157.093 222.155 158.336 221.024 158.648L173.996 171.662C172.868 171.974 171.695 171.238 171.378 170.016C171.06 168.794 171.719 167.551 172.85 167.239Z" fill="#C5C6C7"/>
<path d="M174.574 173.875L201.155 166.519C202.284 166.207 203.457 166.943 203.774 168.165C204.092 169.387 203.433 170.63 202.302 170.942L175.721 178.298C174.592 178.61 173.419 177.874 173.102 176.652C172.784 175.43 173.443 174.187 174.574 173.875Z" fill="#C5C6C7"/>
<path d="M249.739 163.742L249.228 163.885L248.716 164.025C249.272 166.163 248.118 168.339 246.142 168.885L153.112 194.63L153.256 195.184L153.398 195.738L246.43 169.993C248.97 169.288 250.453 166.49 249.739 163.742ZM249.739 163.742L242.854 137.201L242.342 137.344L241.83 137.485L241.975 138.038L248.716 164.025C249.272 166.163 248.118 168.339 246.142 168.885L246.43 169.993C248.97 169.288 250.453 166.49 249.739 163.742Z" fill="black"/>
<path d="M48.1003 191.096L145.221 164.22L153.253 195.183L60.2207 220.928C57.9614 221.552 55.6181 220.08 54.9831 217.636L48.0977 191.096H48.1003Z" fill="#E1E2E3"/>
<path d="M75.7315 194.118L122.76 181.104C123.888 180.792 125.061 181.528 125.378 182.75C125.696 183.972 125.037 185.215 123.906 185.527L76.8782 198.541C75.7499 198.853 74.577 198.117 74.2595 196.895C73.942 195.673 74.6006 194.43 75.7315 194.118Z" fill="#C5C6C7"/>
<path d="M77.4532 200.751L104.035 193.395C105.163 193.083 106.336 193.819 106.653 195.041C106.971 196.263 106.312 197.506 105.181 197.818L78.5999 205.174C77.4716 205.486 76.2986 204.75 75.9811 203.528C75.6636 202.306 76.3223 201.063 77.4532 200.751Z" fill="#C5C6C7"/>
<path d="M153.256 195.184L153.112 194.63L60.0793 220.375C58.1034 220.924 56.0514 219.634 55.4977 217.497L54.986 217.637L54.477 217.777C55.1881 220.528 57.8252 222.185 60.3679 221.483L153.398 195.738L153.256 195.184ZM60.0793 220.375C58.1034 220.924 56.0514 219.634 55.4977 217.497L48.7566 191.51L48.6122 190.956L48.1006 191.096L47.5889 191.237L47.7332 191.791L54.477 217.777C55.1881 220.528 57.8252 222.185 60.3679 221.483L60.0793 220.375Z" fill="black"/>
<path d="M152.799 194.432L145.056 164.587L145.544 164.454L153.287 194.297L152.799 194.432Z" fill="#DEDEDE"/>
<path d="M142.083 225.97C142.009 225.692 141.899 225.463 141.747 225.281C141.597 225.102 141.419 224.961 141.214 224.86C141.012 224.759 140.794 224.691 140.561 224.652C140.327 224.613 140.091 224.595 139.852 224.603H139.257C139.125 224.608 138.994 224.603 138.863 224.59C138.729 224.577 138.606 224.551 138.49 224.509C138.372 224.467 138.273 224.405 138.189 224.324C138.107 224.241 138.05 224.132 138.015 223.999C137.976 223.836 137.981 223.682 138.034 223.531C138.086 223.383 138.183 223.248 138.325 223.131C138.467 223.014 138.65 222.923 138.876 222.861C139.194 222.772 139.474 222.777 139.713 222.876C139.955 222.972 140.123 223.154 140.222 223.422L141.259 223.134C141.159 222.775 140.981 222.481 140.729 222.252C140.472 222.021 140.165 221.872 139.805 221.802C139.446 221.732 139.055 221.755 138.635 221.872C138.217 221.987 137.866 222.169 137.577 222.418C137.289 222.668 137.086 222.959 136.968 223.297C136.853 223.635 136.842 223.994 136.942 224.374C137.06 224.834 137.299 225.164 137.653 225.365C138.01 225.562 138.451 225.661 138.976 225.661H139.7C139.928 225.664 140.133 225.679 140.311 225.71C140.49 225.739 140.639 225.796 140.758 225.882C140.876 225.968 140.957 226.093 141.002 226.259C141.049 226.444 141.038 226.62 140.973 226.787C140.907 226.951 140.797 227.096 140.637 227.221C140.482 227.346 140.285 227.442 140.052 227.507C139.826 227.567 139.613 227.588 139.414 227.564C139.215 227.541 139.039 227.471 138.889 227.354C138.737 227.234 138.624 227.068 138.551 226.847L137.491 227.14C137.619 227.562 137.816 227.897 138.081 228.142C138.351 228.386 138.674 228.539 139.055 228.599C139.435 228.662 139.855 228.628 140.319 228.5C140.794 228.368 141.18 228.175 141.474 227.923C141.768 227.668 141.967 227.375 142.072 227.042C142.177 226.704 142.18 226.347 142.083 225.97ZM146.032 225.3C146.019 225.448 145.982 225.58 145.914 225.697C145.846 225.817 145.756 225.916 145.646 225.999C145.533 226.08 145.402 226.139 145.247 226.181C145.019 226.246 144.806 226.249 144.61 226.191C144.41 226.132 144.24 226.015 144.093 225.843C143.951 225.671 143.843 225.456 143.77 225.188L146.877 224.327L146.788 223.979C146.677 223.555 146.528 223.206 146.341 222.931C146.153 222.652 145.937 222.439 145.696 222.294C145.457 222.145 145.203 222.06 144.932 222.034C144.662 222.005 144.392 222.028 144.116 222.104C143.689 222.223 143.347 222.431 143.085 222.73C142.825 223.027 142.655 223.388 142.576 223.815C142.5 224.236 142.526 224.696 142.655 225.193C142.786 225.697 142.985 226.113 143.256 226.436C143.529 226.761 143.851 226.977 144.227 227.091C144.604 227.203 145.016 227.195 145.462 227.073C145.811 226.977 146.103 226.834 146.344 226.646C146.583 226.457 146.761 226.236 146.879 225.981C147 225.723 147.055 225.445 147.045 225.146L146.032 225.3ZM143.571 223.859C143.615 223.651 143.704 223.469 143.838 223.313C143.972 223.154 144.145 223.045 144.36 222.985C144.562 222.931 144.751 222.931 144.927 222.988C145.106 223.045 145.26 223.147 145.389 223.295C145.518 223.44 145.612 223.622 145.67 223.838L143.573 224.418C143.534 224.226 143.534 224.038 143.571 223.859ZM147.695 219.457L146.643 219.748L148.312 226.184L149.364 225.892L147.695 219.457ZM153.012 223.368C153.001 223.516 152.962 223.648 152.894 223.765C152.828 223.885 152.739 223.984 152.626 224.067C152.513 224.148 152.382 224.207 152.23 224.252C152.002 224.314 151.786 224.317 151.59 224.259C151.393 224.2 151.22 224.083 151.073 223.911C150.931 223.742 150.823 223.524 150.752 223.253L153.859 222.395L153.768 222.047C153.657 221.623 153.51 221.274 153.321 220.999C153.132 220.721 152.917 220.51 152.676 220.362C152.437 220.216 152.183 220.128 151.912 220.102C151.642 220.073 151.372 220.096 151.096 220.172C150.671 220.291 150.327 220.5 150.065 220.799C149.805 221.095 149.635 221.456 149.556 221.883C149.48 222.304 149.506 222.764 149.635 223.261C149.766 223.765 149.965 224.181 150.238 224.506C150.508 224.829 150.831 225.047 151.206 225.159C151.584 225.271 151.996 225.263 152.445 225.141C152.791 225.045 153.085 224.902 153.324 224.714C153.563 224.525 153.741 224.304 153.862 224.049C153.98 223.791 154.035 223.513 154.025 223.214L153.012 223.368ZM150.553 221.927C150.595 221.719 150.684 221.537 150.818 221.381C150.952 221.222 151.125 221.113 151.34 221.056C151.542 220.999 151.731 220.999 151.907 221.056C152.085 221.113 152.24 221.215 152.369 221.363C152.5 221.508 152.592 221.69 152.652 221.906L150.553 222.486C150.516 222.294 150.514 222.106 150.553 221.927ZM158.722 221.534L157.717 221.813C157.73 221.995 157.711 222.158 157.662 222.301C157.609 222.447 157.53 222.569 157.423 222.668C157.318 222.764 157.187 222.835 157.032 222.879C156.811 222.939 156.607 222.928 156.41 222.848C156.216 222.764 156.045 222.619 155.896 222.408C155.743 222.195 155.625 221.924 155.541 221.597C155.457 221.272 155.429 220.981 155.457 220.723C155.489 220.466 155.57 220.252 155.699 220.083C155.83 219.914 156.003 219.797 156.218 219.74C156.47 219.67 156.693 219.691 156.885 219.808C157.079 219.92 157.226 220.086 157.326 220.307L158.331 220.029C158.218 219.688 158.045 219.41 157.811 219.197C157.575 218.981 157.299 218.841 156.982 218.776C156.667 218.711 156.326 218.726 155.964 218.825C155.528 218.947 155.179 219.155 154.914 219.457C154.652 219.753 154.481 220.115 154.405 220.541C154.329 220.962 154.353 221.42 154.481 221.909C154.607 222.398 154.804 222.806 155.072 223.134C155.339 223.459 155.662 223.682 156.035 223.807C156.407 223.929 156.819 223.929 157.263 223.807C157.638 223.703 157.942 223.539 158.181 223.318C158.42 223.092 158.585 222.827 158.68 222.52C158.772 222.21 158.785 221.883 158.722 221.534ZM160.989 217.504L160.107 217.748L159.058 218.04L158.425 218.214L158.653 219.093L159.286 218.919L160.335 218.627L161.217 218.383L160.989 217.504ZM161.902 221.42C161.876 221.436 161.834 221.456 161.781 221.482C161.729 221.508 161.671 221.529 161.605 221.547C161.519 221.571 161.435 221.579 161.356 221.571C161.277 221.56 161.204 221.521 161.138 221.454C161.075 221.386 161.023 221.274 160.984 221.121L160.335 218.627L160.107 217.748L159.808 216.591L158.758 216.883L159.058 218.04L159.286 218.919L159.981 221.599C160.057 221.901 160.183 222.138 160.356 222.304C160.535 222.47 160.74 222.572 160.976 222.611C161.212 222.647 161.459 222.624 161.721 222.543C161.868 222.499 161.991 222.447 162.086 222.395C162.185 222.34 162.259 222.296 162.311 222.26L161.902 221.42ZM168.263 214.813L168.011 213.835L163.264 215.148L163.518 216.126L165.358 215.616L166.772 221.074L167.84 220.778L166.426 215.322L168.263 214.813ZM172.742 215.962C172.658 215.64 172.535 215.387 172.372 215.205C172.209 215.021 172.026 214.891 171.816 214.815C171.608 214.74 171.391 214.704 171.162 214.709C170.934 214.711 170.714 214.745 170.498 214.802C170.189 214.891 169.916 215.018 169.685 215.19C169.451 215.361 169.273 215.569 169.147 215.819C169.021 216.064 168.955 216.344 168.955 216.659L169.976 216.539C169.984 216.357 170.047 216.186 170.165 216.025C170.286 215.861 170.475 215.744 170.732 215.673C170.976 215.606 171.178 215.619 171.341 215.712C171.506 215.806 171.619 215.973 171.679 216.209L171.684 216.227C171.713 216.337 171.695 216.428 171.635 216.5C171.574 216.571 171.464 216.641 171.309 216.711C171.152 216.779 170.947 216.864 170.693 216.966C170.483 217.052 170.283 217.15 170.094 217.262C169.908 217.374 169.748 217.504 169.614 217.655C169.48 217.806 169.391 217.985 169.344 218.188C169.297 218.391 169.31 218.63 169.381 218.9C169.462 219.218 169.596 219.465 169.782 219.647C169.971 219.823 170.191 219.938 170.443 219.987C170.698 220.034 170.968 220.018 171.249 219.94C171.482 219.875 171.677 219.784 171.829 219.667C171.986 219.548 172.104 219.415 172.191 219.27C172.275 219.119 172.333 218.968 172.361 218.817L172.398 218.807L172.569 219.47L173.579 219.192L172.742 215.962ZM172.083 218.279C172.039 218.453 171.952 218.607 171.821 218.742C171.69 218.874 171.516 218.971 171.307 219.028C171.086 219.09 170.895 219.085 170.724 219.017C170.556 218.95 170.443 218.812 170.388 218.601C170.351 218.456 170.357 218.326 170.404 218.214C170.451 218.099 170.53 218.001 170.64 217.912C170.75 217.826 170.881 217.751 171.031 217.683C171.099 217.652 171.178 217.618 171.27 217.577C171.359 217.535 171.451 217.494 171.543 217.447C171.635 217.403 171.716 217.356 171.787 217.309C171.86 217.262 171.91 217.221 171.936 217.182L172.083 217.748C172.128 217.928 172.128 218.105 172.083 218.279ZM177.885 216.451C177.793 216.105 177.615 215.855 177.352 215.699C177.093 215.541 176.738 215.473 176.29 215.491L175.484 215.525C175.243 215.53 175.062 215.504 174.941 215.445C174.82 215.382 174.741 215.281 174.707 215.14C174.663 214.979 174.702 214.826 174.823 214.683C174.946 214.537 175.117 214.436 175.334 214.373C175.497 214.329 175.641 214.319 175.77 214.345C175.896 214.371 176.004 214.42 176.093 214.496C176.185 214.568 176.258 214.654 176.313 214.75L177.242 214.373C177.064 213.981 176.793 213.708 176.429 213.549C176.067 213.393 175.623 213.385 175.101 213.531C174.744 213.63 174.445 213.778 174.203 213.973C173.962 214.168 173.794 214.397 173.7 214.659C173.605 214.919 173.597 215.198 173.676 215.494C173.765 215.845 173.944 216.11 174.209 216.282C174.471 216.454 174.831 216.529 175.285 216.506L176.09 216.469C176.308 216.461 176.476 216.487 176.597 216.552C176.717 216.612 176.796 216.714 176.833 216.851C176.875 217.015 176.835 217.174 176.709 217.327C176.589 217.481 176.402 217.59 176.153 217.66C175.912 217.728 175.699 217.725 175.521 217.66C175.34 217.59 175.198 217.452 175.096 217.249L174.099 217.639C174.277 218.066 174.566 218.357 174.962 218.513C175.361 218.669 175.833 218.672 176.379 218.521C176.749 218.417 177.061 218.261 177.316 218.053C177.568 217.842 177.746 217.6 177.846 217.325C177.948 217.049 177.961 216.758 177.885 216.454V216.451ZM180.601 212.075L179.501 214.457L179.428 214.477L179.333 214.503L179.69 215.876L179.756 215.741L180.024 215.192L180.257 214.717L180.475 214.657L180.64 214.298L181.829 211.737L180.601 212.075ZM179.756 215.741L179.428 214.477L178.507 210.931L177.457 211.222L179.126 217.655L180.178 217.364L179.756 215.741ZM180.64 214.298L180.404 214.09L179.903 215.086L180.024 215.192L181.926 216.88L183.183 216.534L180.64 214.298Z" fill="#231F20"/>
<path d="M254.2 184.156L253.55 181.652C252.962 179.38 250.768 178.004 248.661 178.587L62.5985 230.077C60.738 230.594 59.5546 232.466 59.7146 234.463C59.733 234.728 59.7776 234.991 59.8458 235.256L61.869 243.052C62.0868 243.226 62.3046 243.395 62.5224 243.561L60.3313 235.121C60.3182 235.074 60.3077 235.027 60.2998 234.978C59.8668 233.03 60.9322 231.075 62.727 230.581L248.79 179.091C249.076 179.011 249.362 178.974 249.642 178.974C251.188 178.974 252.626 180.1 253.064 181.788L253.901 185.009L256.147 193.666C256.255 193.411 256.363 193.156 256.467 192.898L254.2 184.156ZM239.382 213.157L90.5943 254.331L82.9216 256.453C83.1499 256.57 83.3808 256.687 83.6144 256.802L91.3422 254.662L238.91 213.828L246.651 211.685C246.793 211.469 246.932 211.251 247.068 211.03L239.385 213.157H239.382Z" fill="url(#paint3_linear_5807_34223)"/>
</g>
<defs>
<filter id="filter0_di_5807_34223" x="0" y="0" width="264.712" height="266.035" filterUnits="userSpaceOnUse" color-interpolation-filters="sRGB">
<feFlood flood-opacity="0" result="BackgroundImageFix"/>
<feColorMatrix in="SourceAlpha" type="matrix" values="0 0 0 0 0 0 0 0 0 0 0 0 0 0 0 0 0 0 127 0" result="hardAlpha"/>
<feOffset dx="-2" dy="-2"/>
<feGaussianBlur stdDeviation="2"/>
<feColorMatrix type="matrix" values="0 0 0 0 0 0 0 0 0 0 0 0 0 0 0 0 0 0 0.15 0"/>
<feBlend mode="normal" in2="BackgroundImageFix" result="effect1_dropShadow_5807_34223"/>
<feBlend mode="normal" in="SourceGraphic" in2="effect1_dropShadow_5807_34223" result="shape"/>
<feColorMatrix in="SourceAlpha" type="matrix" values="0 0 0 0 0 0 0 0 0 0 0 0 0 0 0 0 0 0 127 0" result="hardAlpha"/>
<feOffset dy="-2"/>
<feComposite in2="hardAlpha" operator="arithmetic" k2="-1" k3="1"/>
<feColorMatrix type="matrix" values="0 0 0 0 0 0 0 0 0 0 0 0 0 0 0 0 0 0 0.15 0"/>
<feBlend mode="normal" in2="shape" result="effect2_innerShadow_5807_34223"/>
</filter>
<linearGradient id="paint0_linear_5807_34223" x1="206.925" y1="39.4064" x2="74.4637" y2="252.773" gradientUnits="userSpaceOnUse">
<stop stop-color="#1C2B9E"/>
<stop offset="1" stop-color="#6C7DF4"/>
</linearGradient>
<linearGradient id="paint1_linear_5807_34223" x1="204.14" y1="246.562" x2="77.1968" y2="42.084" gradientUnits="userSpaceOnUse">
<stop stop-color="#2D45EF"/>
<stop offset="1" stop-color="#6C7DF4"/>
</linearGradient>
<linearGradient id="paint2_linear_5807_34223" x1="122.25" y1="59.8408" x2="109.215" y2="48.162" gradientUnits="userSpaceOnUse">
<stop stop-color="#2D45EF"/>
<stop offset="1" stop-color="#6C7DF4"/>
</linearGradient>
<linearGradient id="paint3_linear_5807_34223" x1="165.501" y1="235.166" x2="153.454" y2="202.735" gradientUnits="userSpaceOnUse">
<stop stop-color="#2D45EF"/>
<stop offset="1" stop-color="#6C7DF4"/>
</linearGradient>
</defs>
</svg>
