<svg width="265" height="270" viewBox="0 0 265 270" fill="none" xmlns="http://www.w3.org/2000/svg">
<path d="M251.839 145.177C251.839 178.614 238.628 208.982 217.116 231.388C214.407 234.212 211.566 236.909 208.603 239.467C206.719 241.095 204.786 242.669 202.805 244.185C197.82 248.002 192.537 251.453 186.997 254.498C184.042 256.126 181.014 257.637 177.92 259.026C175.594 260.068 173.235 261.044 170.836 261.943C157.032 267.15 142.06 270 126.42 270C87.286 270 52.3384 252.163 29.3422 224.21C29.0496 223.857 28.7595 223.5 28.4721 223.142C25.0988 218.955 21.9947 214.547 19.1832 209.944L19.0421 209.71C15.7864 204.358 12.9227 198.744 10.4979 192.908C10.4274 192.742 10.3594 192.576 10.2915 192.407C8.28479 187.531 6.58117 182.501 5.20417 177.339C4.91152 176.245 4.63455 175.145 4.37065 174.039C2.16536 164.774 1 155.11 1 145.177C1 112.002 14.0018 81.8523 35.2108 59.4986C39.5482 54.9269 44.2306 50.6829 49.2134 46.803C49.8535 46.3037 50.5015 45.8096 51.1521 45.3233C51.4579 45.0945 51.7636 44.8682 52.0719 44.6394C62.6124 36.9056 74.4149 30.7736 87.1162 26.6077C95.5533 23.8356 104.39 21.9346 113.514 21.0062C117.758 20.5746 122.061 20.3535 126.42 20.3535C153.894 20.3535 179.305 29.1457 199.965 44.0595C205.562 48.098 210.809 52.5865 215.656 57.4702C226.653 68.5482 235.576 81.6624 241.806 96.1913C241.897 96.3968 241.986 96.5996 242.069 96.805C242.762 98.4355 243.415 100.084 244.037 101.749C244.405 102.726 244.756 103.709 245.095 104.698C246.323 108.258 247.392 111.89 248.293 115.586C248.782 117.585 249.221 119.606 249.613 121.642C251.074 129.264 251.839 137.131 251.839 145.177Z" fill="url(#paint0_linear_5807_34276)"/>
<path d="M126.419 265.004C192.916 265.004 246.822 211.354 246.822 145.174C246.822 78.9935 192.916 25.3438 126.419 25.3438C59.9228 25.3438 6.0166 78.9935 6.0166 145.174C6.0166 211.354 59.9228 265.004 126.419 265.004Z" fill="url(#paint1_linear_5807_34276)"/>
<g filter="url(#filter0_di_5807_34276)">
<path d="M260.66 69.6486L248.293 115.586L245.362 126.472L220.04 220.528L217.116 231.388C214.406 234.212 211.566 236.909 208.603 239.468C206.719 241.096 204.786 242.669 202.805 244.185C197.82 248.003 192.536 251.453 186.997 254.499C184.042 256.126 181.013 257.637 177.92 259.026C175.594 260.069 173.235 261.044 170.836 261.944L162.174 259.634L38.0142 226.523L29.3446 224.211C29.052 223.857 28.7619 223.501 28.4745 223.142C25.1012 218.955 21.9971 214.547 19.1856 209.945L19.0445 209.71C15.7888 204.359 12.9251 198.744 10.5003 192.909C10.4298 192.742 10.3618 192.576 10.2939 192.407C8.28718 187.531 6.58357 182.502 5.20656 177.34C4.91392 176.245 4.63695 175.145 4.37305 174.04L7.34392 163.006L32.2449 70.5093L35.2106 59.4989L47.763 12.8749C49.0668 8.03018 53.7544 5.07084 58.2329 6.26446L113.514 21.0066L129.989 25.4014H129.991L183.605 39.6988L199.962 44.0598L254.909 58.7136C259.388 59.9072 261.961 64.8039 260.657 69.6486H260.66Z" fill="white"/>
<path d="M153.62 43.4539C158.098 44.6475 160.672 49.5442 159.368 54.3889C158.065 59.2336 153.374 62.193 148.896 60.9994C144.417 59.8057 141.844 54.909 143.147 50.0643C144.451 45.2196 149.141 42.2603 153.62 43.4539Z" fill="url(#paint2_linear_5807_34276)"/>
<path d="M155.363 50.4989C155.219 50.2258 154.916 50.1452 154.652 50.309L149.742 53.4062L148.629 51.2868C148.485 51.0138 148.182 50.9331 147.918 51.097C147.657 51.2634 147.568 51.5911 147.712 51.8641L149.079 54.462C149.152 54.5998 149.238 54.6804 149.39 54.722C149.541 54.7637 149.659 54.735 149.789 54.6518L155.156 51.2634C155.418 51.097 155.506 50.7693 155.363 50.4963V50.4989Z" fill="#F4F5F6"/>
<path d="M146.536 69.7705L238.793 94.3737C241.032 94.9718 242.32 97.4188 241.667 99.8425L234.581 126.159L138.269 100.474L146.536 69.7705Z" fill="white"/>
<path d="M168.717 86.2627L215.352 98.6982C216.473 98.9973 217.116 100.222 216.789 101.431C216.463 102.643 215.292 103.382 214.171 103.083L167.536 90.6471C166.415 90.3481 165.772 89.1233 166.099 87.914C166.425 86.7022 167.596 85.9637 168.717 86.2627Z" fill="#C5C6C7"/>
<path d="M166.945 92.8418L193.304 99.8709C194.425 100.17 195.068 101.395 194.741 102.604C194.415 103.816 193.244 104.554 192.123 104.255L165.764 97.2262C164.643 96.9272 164.001 95.7024 164.327 94.4931C164.654 93.2813 165.824 92.5428 166.945 92.8418Z" fill="#C5C6C7"/>
<path d="M242.069 96.805C241.996 96.5943 241.907 96.3889 241.805 96.1913C241.225 95.047 240.222 94.1681 238.939 93.8248L234.688 92.691H234.685L146.682 69.2217L146.536 69.7704L146.387 70.3191L235.338 94.0407L238.644 94.9222C240.603 95.4449 241.73 97.5851 241.16 99.7045L242.174 99.975C242.469 98.8776 242.409 97.775 242.069 96.805ZM234.583 126.157H234.581L234.223 125.473L138.418 99.9256L138.269 100.474L138.19 100.771L138.123 101.023L138.373 101.091L233.925 126.57L234.939 126.841H234.941L234.583 126.157ZM242.069 96.805C241.996 96.5943 241.907 96.3889 241.805 96.1913C241.225 95.047 240.222 94.1681 238.939 93.8248L238.793 94.3735L238.644 94.9222C240.603 95.4449 241.73 97.5851 241.16 99.7045L239.799 104.76L234.223 125.473L138.418 99.9256L138.269 100.474L234.074 126.021L234.581 126.157H234.583L234.941 126.838L235.088 126.292L240.415 106.51L242.174 99.975C242.469 98.8776 242.409 97.775 242.069 96.805Z" fill="black"/>
<path d="M49.0432 48.4732C49.6965 46.0496 52.0402 44.5725 54.2795 45.168L146.536 69.7712L138.269 100.475L41.957 74.7901L49.0432 48.4732Z" fill="#E1E2E3"/>
<path d="M72.4053 60.5782L119.041 73.0137C120.161 73.3127 120.804 74.5375 120.478 75.7468C120.151 76.9586 118.98 77.6971 117.859 77.3981L71.2243 64.9626C70.1034 64.6635 69.4606 63.4387 69.7872 62.2295C70.1138 61.0176 71.2844 60.2791 72.4053 60.5782Z" fill="#C5C6C7"/>
<path d="M70.6338 67.1573L96.9929 74.1864C98.1138 74.4854 98.7566 75.7102 98.43 76.9195C98.1033 78.1313 96.9328 78.8698 95.8118 78.5708L69.4528 71.5417C68.3319 71.2426 67.6891 70.0178 68.0157 68.8086C68.3423 67.5967 69.5129 66.8582 70.6338 67.1573Z" fill="#C5C6C7"/>
<path d="M59.0401 45.8519L54.4257 44.6219C53.6314 44.4086 52.824 44.4294 52.0715 44.6401C50.9244 44.9651 49.8976 45.7323 49.213 46.8037C48.9177 47.2614 48.6878 47.7789 48.5362 48.338L49.0431 48.4732L49.55 48.6084C50.1197 46.489 52.1708 45.194 54.1305 45.7167L57.8016 46.6971H57.8042L146.387 70.3198L146.536 69.7711L146.682 69.2224L59.0401 45.8519ZM42.6128 74.3766L41.9569 74.79L41.3037 75.2035L41.8106 75.3387L42.3175 75.474L137.869 100.956L138.122 101.024L138.19 100.771L138.269 100.475L138.418 99.9263L42.6128 74.3766ZM42.6128 74.3766L48.0424 54.2124L49.55 48.6084C50.1197 46.489 52.1708 45.194 54.1305 45.7167L54.2794 45.168L54.4257 44.6219C53.6314 44.4086 52.824 44.4294 52.0715 44.6401C50.9244 44.9651 49.8976 45.7323 49.213 46.8037C48.9177 47.2614 48.6878 47.7789 48.5362 48.338L46.6236 55.4425L41.45 74.6548L41.3037 75.2035L41.9569 74.79L42.4638 74.9253L138.269 100.475L138.418 99.9263L42.6128 74.3766Z" fill="black"/>
<path d="M146.064 70.5127L138.234 99.5977L138.739 99.7323L146.569 70.6473L146.064 70.5127Z" fill="#DEDEDE"/>
<path d="M138.269 100.472L234.581 126.157L226.314 156.861L130.002 131.176L138.269 100.472Z" fill="white"/>
<path d="M160.45 116.967L207.085 129.402C208.206 129.701 208.849 130.926 208.522 132.135C208.195 133.347 207.025 134.086 205.904 133.787L159.269 121.351C158.148 121.052 157.505 119.827 157.832 118.618C158.158 117.406 159.329 116.668 160.45 116.967Z" fill="#C5C6C7"/>
<path d="M158.678 123.546L185.037 130.575C186.158 130.874 186.801 132.099 186.474 133.308C186.148 134.52 184.977 135.259 183.856 134.959L157.497 127.93C156.376 127.631 155.734 126.406 156.06 125.197C156.387 123.985 157.557 123.247 158.678 123.546Z" fill="#C5C6C7"/>
<path d="M226.314 156.861L226.167 157.409L226.674 157.545L226.82 156.996L226.314 156.861ZM234.583 126.157H234.581L234.074 126.021L233.925 126.57L225.956 156.177L130.151 130.63L130.004 131.176L225.807 156.725L226.314 156.861L226.82 156.996L234.939 126.841H234.941L235.088 126.292L234.583 126.157ZM225.956 156.177L130.151 130.63L130.004 131.176L129.923 131.472L129.855 131.724L130.109 131.792L225.66 157.274L226.167 157.409L226.314 156.861L226.463 156.312L225.956 156.177Z" fill="black"/>
<path d="M41.957 74.79L138.269 100.475L130.002 131.179L33.6924 105.494L41.9596 74.79H41.957Z" fill="#E1E2E3"/>
<path d="M64.1382 91.2823L110.773 103.718C111.894 104.017 112.537 105.242 112.211 106.451C111.884 107.663 110.713 108.401 109.592 108.102L62.9572 95.6667C61.8363 95.3676 61.1935 94.1428 61.5201 92.9336C61.8467 91.7217 63.0173 90.9832 64.1382 91.2823Z" fill="#C5C6C7"/>
<path d="M62.3663 97.8614L88.7253 104.89C89.8462 105.19 90.489 106.414 90.1624 107.624C89.8358 108.835 88.6652 109.574 87.5442 109.275L61.1852 102.246C60.0643 101.947 59.4215 100.722 59.7481 99.5127C60.0747 98.3008 61.2453 97.5623 62.3663 97.8614Z" fill="#C5C6C7"/>
<path d="M33.1856 105.358L33.0366 105.907L33.5435 106.042L33.6925 105.493L33.1856 105.358ZM34.3457 105.08L33.8388 104.945L33.6925 105.493L33.5435 106.042L34.0504 106.177L129.602 131.657L129.855 131.724L129.923 131.475L130.004 131.176L130.151 130.63L34.3457 105.08ZM34.3457 105.08L42.3177 75.4734L42.464 74.9247L41.4502 74.6543L41.3039 75.203L33.1856 105.358L34.1994 105.629L130.004 131.176L130.151 130.63L34.3457 105.08Z" fill="black"/>
<path d="M137.937 100.703L129.969 130.301L130.474 130.435L138.442 100.838L137.937 100.703Z" fill="#DEDEDE"/>
<path d="M130.005 131.176L226.316 156.861L218.049 187.565L121.737 161.88L130.005 131.176Z" fill="white"/>
<path d="M152.185 147.668L198.82 160.103C199.941 160.403 200.584 161.627 200.257 162.837C199.931 164.048 198.76 164.787 197.639 164.488L151.004 152.052C149.883 151.753 149.24 150.529 149.567 149.319C149.894 148.107 151.064 147.369 152.185 147.668Z" fill="#C5C6C7"/>
<path d="M150.414 154.247L176.773 161.276C177.894 161.575 178.536 162.8 178.21 164.009C177.883 165.221 176.713 165.96 175.592 165.661L149.233 158.632C148.112 158.332 147.469 157.108 147.795 155.898C148.122 154.687 149.293 153.948 150.414 154.247Z" fill="#C5C6C7"/>
<path d="M218.049 187.565L217.9 188.111L218.404 188.246L218.553 187.7L218.046 187.565H218.049ZM226.314 156.861L225.807 156.726L225.66 157.274L217.688 186.881L121.886 161.331L121.737 161.88L217.542 187.429L218.046 187.565L218.553 187.7L226.672 157.545L226.818 156.996L226.311 156.861H226.314ZM217.688 186.881L121.886 161.331L121.737 161.88L121.659 162.176L121.591 162.428L121.842 162.496L217.396 187.976L217.9 188.111L218.046 187.565L218.193 187.016L217.686 186.881H217.688Z" fill="black"/>
<path d="M33.6925 105.494L130.004 131.179L121.737 161.883L25.4253 136.195L33.6925 105.491V105.494Z" fill="#E1E2E3"/>
<path d="M55.8736 121.986L102.509 134.422C103.63 134.721 104.272 135.946 103.946 137.155C103.619 138.367 102.449 139.105 101.328 138.806L54.6926 126.371C53.5716 126.072 52.9288 124.847 53.2555 123.638C53.5821 122.426 54.7527 121.687 55.8736 121.986Z" fill="#C5C6C7"/>
<path d="M54.1016 128.565L80.4606 135.595C81.5816 135.894 82.2243 137.118 81.8977 138.328C81.5711 139.539 80.4005 140.278 79.2796 139.979L52.9206 132.95C51.7996 132.651 51.1569 131.426 51.4835 130.217C51.8101 129.005 52.9807 128.266 54.1016 128.565Z" fill="#C5C6C7"/>
<path d="M24.9183 136.062L24.772 136.608L25.2789 136.744L25.4252 136.198L24.9183 136.062ZM26.0784 135.784L25.5741 135.649L25.4278 136.195L25.2815 136.744L25.7884 136.879L121.34 162.361L121.591 162.429L121.659 162.176L121.737 161.88L121.886 161.331L26.0784 135.784ZM26.0784 135.784L34.0504 106.178L34.1993 105.629L33.1855 105.358L33.0366 105.907L24.9183 136.062L25.4252 136.195L25.9321 136.33L121.737 161.88L121.886 161.331L26.0784 135.784Z" fill="black"/>
<path d="M129.67 131.405L121.701 161.002L122.206 161.137L130.174 131.539L129.67 131.405Z" fill="#DEDEDE"/>
<path d="M121.737 161.88L218.049 187.565L210.963 213.882C210.309 216.303 207.966 217.782 205.726 217.187L113.47 192.584L121.737 161.88Z" fill="white"/>
<path d="M143.918 178.372L190.553 190.808C191.674 191.107 192.317 192.331 191.99 193.541C191.664 194.753 190.493 195.491 189.372 195.192L142.737 182.757C141.616 182.457 140.973 181.233 141.3 180.023C141.627 178.812 142.797 178.073 143.918 178.372Z" fill="#C5C6C7"/>
<path d="M142.147 184.951L168.506 191.98C169.626 192.279 170.269 193.504 169.943 194.713C169.616 195.925 168.445 196.664 167.325 196.365L140.966 189.336C139.845 189.037 139.202 187.812 139.528 186.603C139.855 185.391 141.026 184.652 142.147 184.951Z" fill="#C5C6C7"/>
<path d="M210.962 213.882L210.455 213.747C209.886 215.866 207.835 217.161 205.875 216.638L113.619 192.035L113.47 192.584L113.323 193.133L205.58 217.733C208.099 218.407 210.735 216.742 211.469 214.017L210.962 213.882ZM218.049 187.565L217.544 187.43L217.398 187.976L210.458 213.747C209.888 215.866 207.837 217.161 205.878 216.638L205.731 217.184L205.582 217.733C208.101 218.407 210.738 216.742 211.472 214.017L218.558 187.7L218.051 187.565H218.049Z" fill="black"/>
<path d="M25.425 136.195L121.737 161.88L113.47 192.584L21.213 167.981C18.9738 167.383 17.6856 164.936 18.3388 162.512L25.425 136.195Z" fill="#E1E2E3"/>
<path d="M47.6065 152.688L94.2417 165.123C95.3626 165.422 96.0054 166.647 95.6788 167.856C95.3522 169.068 94.1816 169.806 93.0606 169.507L46.4255 157.072C45.3045 156.773 44.6618 155.548 44.9884 154.339C45.315 153.127 46.4856 152.388 47.6065 152.688Z" fill="#C5C6C7"/>
<path d="M45.8345 159.267L72.1935 166.296C73.3145 166.595 73.9573 167.82 73.6306 169.029C73.304 170.241 72.1334 170.979 71.0125 170.68L44.6535 163.651C43.5326 163.352 42.8898 162.127 43.2164 160.918C43.543 159.706 44.7136 158.968 45.8345 159.267Z" fill="#C5C6C7"/>
<path d="M21.362 167.432C19.4023 166.909 18.2761 164.769 18.8483 162.647L17.8345 162.377C17.1003 165.105 18.5479 167.856 21.0667 168.53L113.323 193.133L113.47 192.584L113.619 192.035L21.362 167.432ZM25.7856 136.879L25.9319 136.33L25.425 136.198L24.9181 136.062L24.7718 136.609L17.8345 162.377C17.1003 165.105 18.5479 167.856 21.0667 168.53L21.2156 167.981L21.362 167.432C19.4023 166.909 18.2761 164.769 18.8483 162.647L25.7856 136.879Z" fill="black"/>
<path d="M121.405 162.11L113.437 191.707L113.941 191.842L121.91 162.244L121.405 162.11Z" fill="#DEDEDE"/>
<path d="M206.238 231.424L205.021 235.949L202.805 244.185C197.819 248.002 192.536 251.453 186.997 254.498L179.848 252.592L26.2089 211.622L19.0416 209.71C15.786 204.359 12.9222 198.744 10.4974 192.909C10.4269 192.742 10.359 192.576 10.291 192.407L12.5224 184.127L13.6172 180.057C14.2679 177.636 16.6143 176.156 18.8535 176.752L203.364 225.958C205.606 226.554 206.891 229.003 206.238 231.424Z" fill="url(#paint3_linear_5807_34276)"/>
<path d="M80.5707 206.354L80.312 207.323L82.1332 207.81L80.6778 213.219L81.7387 213.502L83.194 208.091L85.0179 208.577L85.2765 207.61L80.5707 206.354ZM88.3441 210.98C88.2944 210.741 88.2004 210.535 88.0567 210.366C87.9156 210.194 87.7483 210.054 87.5498 209.945C87.3538 209.833 87.15 209.75 86.9357 209.693C86.6274 209.612 86.3321 209.586 86.05 209.617C85.7678 209.646 85.5117 209.737 85.2818 209.888C85.0518 210.036 84.8611 210.244 84.7069 210.514L85.6397 210.923C85.7338 210.774 85.8723 210.657 86.0526 210.577C86.2355 210.496 86.455 210.491 86.7084 210.558C86.9514 210.624 87.1186 210.735 87.2127 210.899C87.3068 211.063 87.3224 211.261 87.2597 211.497L87.2545 211.515C87.2258 211.622 87.1657 211.692 87.0768 211.723C86.9906 211.755 86.8652 211.76 86.6953 211.742C86.5281 211.724 86.3112 211.692 86.0447 211.653C85.8226 211.619 85.6031 211.604 85.3863 211.606C85.172 211.609 84.9708 211.64 84.7827 211.703C84.5946 211.768 84.4326 211.874 84.2915 212.028C84.153 212.179 84.0459 212.389 83.9727 212.66C83.8891 212.974 83.8812 213.253 83.9544 213.502C84.0276 213.752 84.1582 213.96 84.3516 214.129C84.5475 214.298 84.7853 214.418 85.0675 214.493C85.2974 214.555 85.5065 214.574 85.6946 214.55C85.888 214.527 86.0552 214.472 86.1989 214.389C86.3452 214.303 86.468 214.202 86.5673 214.085L86.6039 214.095L86.4262 214.753L87.4296 215.021L88.2918 211.817C88.3754 211.5 88.3937 211.222 88.3441 210.98ZM86.8521 213.026C86.8025 213.203 86.7162 213.354 86.5934 213.481C86.4706 213.609 86.3191 213.697 86.1414 213.749C85.9637 213.796 85.7704 213.793 85.5613 213.736C85.3445 213.679 85.1799 213.578 85.0675 213.435C84.9551 213.292 84.9264 213.117 84.9839 212.909C85.0231 212.764 85.091 212.654 85.1851 212.582C85.2818 212.509 85.3993 212.459 85.5352 212.441C85.6737 212.423 85.8226 212.423 85.982 212.441C86.0552 212.449 86.1414 212.457 86.2381 212.47C86.3374 212.48 86.4367 212.488 86.536 212.496C86.6379 212.501 86.7293 212.504 86.8129 212.498C86.8992 212.496 86.9619 212.483 87.0037 212.462L86.8521 213.026ZM90.6983 211.763C90.8734 211.7 91.0694 211.697 91.2862 211.755C91.4482 211.799 91.5763 211.861 91.6729 211.947C91.7696 212.033 91.8375 212.132 91.8767 212.241C91.9212 212.35 91.9421 212.459 91.9395 212.571L92.9219 212.712C92.9585 212.285 92.8618 211.913 92.6266 211.593C92.3915 211.276 92.0178 211.047 91.4979 210.91C91.1451 210.816 90.8159 210.793 90.5128 210.842C90.2123 210.889 89.9563 211.001 89.7472 211.177C89.5382 211.354 89.3971 211.588 89.3187 211.885C89.222 212.233 89.2455 212.548 89.3892 212.831C89.5303 213.112 89.8021 213.357 90.1993 213.565L90.9073 213.939C91.0981 214.041 91.2314 214.15 91.3019 214.264C91.3777 214.379 91.3933 214.506 91.3568 214.641C91.315 214.805 91.2026 214.919 91.0197 214.99C90.842 215.06 90.6278 215.063 90.3795 214.995C90.1392 214.932 89.9589 214.823 89.8387 214.675C89.7185 214.524 89.6662 214.334 89.6767 214.108L88.6315 213.942C88.5766 214.399 88.6811 214.795 88.9451 215.13C89.209 215.463 89.6113 215.702 90.1548 215.845C90.5232 215.944 90.8655 215.967 91.1843 215.915C91.5031 215.861 91.7748 215.744 91.9943 215.557C92.219 215.369 92.3706 215.125 92.4542 214.823C92.5456 214.48 92.5143 214.176 92.368 213.911C92.219 213.643 91.9499 213.406 91.558 213.195L90.8499 212.821C90.6408 212.704 90.4997 212.589 90.4266 212.478C90.3534 212.363 90.3351 212.238 90.3743 212.101C90.4161 211.937 90.5233 211.825 90.6983 211.763ZM96.9197 212.423L94.8136 213.921L94.7405 213.903L94.6464 213.877L94.2832 215.239L94.4034 215.159L94.9025 214.818L95.3336 214.524L95.5505 214.581L95.8693 214.358L98.1399 212.748L96.9197 212.423ZM94.6464 210.106L92.9271 216.488L93.9697 216.763L94.4034 215.159L94.7405 213.903L95.689 210.384L94.6464 210.106ZM95.8693 214.358L95.7674 214.059L94.8502 214.665L94.9025 214.818L95.7047 217.226L96.951 217.559L95.8693 214.358ZM105.082 214.769C105.174 214.41 105.166 214.067 105.059 213.741C104.954 213.416 104.764 213.133 104.489 212.891C104.218 212.649 103.87 212.472 103.452 212.363C103.039 212.251 102.65 212.231 102.281 212.303C101.913 212.371 101.594 212.522 101.328 212.753C101.064 212.985 100.881 213.289 100.782 213.666C100.656 214.124 100.698 214.527 100.904 214.878C101.113 215.226 101.443 215.533 101.892 215.798L102.511 216.165C102.707 216.28 102.874 216.394 103.013 216.511C103.151 216.625 103.251 216.75 103.308 216.885C103.368 217.015 103.376 217.166 103.334 217.333C103.282 217.515 103.188 217.66 103.052 217.77C102.916 217.879 102.749 217.949 102.553 217.978C102.357 218.006 102.143 217.988 101.91 217.928C101.688 217.868 101.497 217.777 101.335 217.658C101.176 217.536 101.061 217.387 100.991 217.211C100.917 217.034 100.904 216.831 100.949 216.605L99.8984 216.324C99.7991 216.753 99.8043 217.14 99.9114 217.484C100.024 217.829 100.225 218.123 100.52 218.368C100.818 218.612 101.194 218.794 101.654 218.916C102.127 219.044 102.55 219.07 102.924 219.002C103.3 218.932 103.617 218.779 103.87 218.542C104.123 218.305 104.299 218.001 104.4 217.627C104.474 217.351 104.492 217.096 104.45 216.865C104.411 216.633 104.327 216.423 104.202 216.235C104.076 216.046 103.922 215.876 103.742 215.723C103.562 215.575 103.368 215.442 103.162 215.325L102.647 215.029C102.535 214.966 102.425 214.893 102.318 214.818C102.213 214.74 102.119 214.654 102.038 214.563C101.96 214.467 101.905 214.363 101.874 214.251C101.842 214.139 101.848 214.015 101.882 213.882C101.929 213.723 102.01 213.593 102.127 213.489C102.245 213.388 102.394 213.323 102.571 213.292C102.752 213.263 102.953 213.276 103.175 213.336C103.491 213.422 103.729 213.565 103.886 213.77C104.045 213.976 104.1 214.215 104.056 214.496L105.082 214.769ZM109.535 217.148C109.509 216.815 109.428 216.524 109.294 216.277C109.161 216.03 108.986 215.827 108.767 215.668C108.55 215.507 108.307 215.393 108.032 215.32C107.612 215.206 107.215 215.213 106.846 215.341C106.475 215.463 106.154 215.689 105.879 216.017C105.605 216.342 105.404 216.753 105.271 217.244C105.137 217.744 105.106 218.201 105.179 218.617C105.252 219.031 105.422 219.382 105.689 219.668C105.958 219.954 106.313 220.157 106.757 220.274C107.102 220.365 107.421 220.391 107.719 220.352C108.017 220.308 108.278 220.206 108.505 220.045C108.733 219.884 108.916 219.673 109.051 219.411L108.111 219.033C108.027 219.156 107.93 219.249 107.815 219.317C107.701 219.385 107.575 219.426 107.439 219.442C107.303 219.455 107.16 219.439 107.008 219.4C106.781 219.34 106.598 219.234 106.457 219.085C106.316 218.935 106.227 218.747 106.185 218.526C106.148 218.311 106.162 218.069 106.229 217.801L109.31 218.623L109.404 218.277C109.516 217.855 109.561 217.481 109.535 217.148ZM108.516 217.595L106.438 217.039C106.499 216.854 106.59 216.693 106.71 216.555C106.849 216.399 107.013 216.287 107.204 216.22C107.395 216.152 107.599 216.144 107.81 216.202C108.011 216.254 108.173 216.35 108.296 216.488C108.422 216.625 108.503 216.792 108.542 216.984C108.581 217.174 108.573 217.38 108.516 217.595ZM111.351 214.561L109.631 220.942L110.674 221.218L112.391 214.839L111.351 214.561ZM116.456 218.994C116.43 218.662 116.352 218.37 116.216 218.123C116.083 217.876 115.908 217.673 115.688 217.515C115.474 217.354 115.228 217.239 114.957 217.166C114.533 217.052 114.136 217.06 113.768 217.187C113.399 217.309 113.075 217.536 112.801 217.863C112.529 218.188 112.325 218.597 112.192 219.091C112.059 219.59 112.027 220.048 112.101 220.464C112.174 220.877 112.344 221.228 112.61 221.514C112.879 221.8 113.237 222.003 113.679 222.12C114.024 222.211 114.345 222.237 114.64 222.196C114.938 222.154 115.2 222.053 115.427 221.891C115.657 221.73 115.837 221.52 115.976 221.257L115.032 220.88C114.951 221.002 114.852 221.096 114.737 221.163C114.622 221.231 114.497 221.272 114.361 221.288C114.225 221.301 114.084 221.285 113.93 221.246C113.705 221.187 113.519 221.08 113.378 220.932C113.24 220.781 113.148 220.594 113.107 220.373C113.07 220.154 113.083 219.915 113.151 219.647L116.234 220.469L116.326 220.123C116.441 219.702 116.482 219.327 116.456 218.994ZM115.44 219.442L113.36 218.885C113.42 218.701 113.512 218.539 113.632 218.402C113.77 218.246 113.935 218.134 114.126 218.066C114.319 217.998 114.52 217.991 114.734 218.048C114.933 218.1 115.095 218.196 115.218 218.334C115.343 218.472 115.427 218.638 115.463 218.831C115.503 219.02 115.495 219.226 115.44 219.442ZM121.222 220.68C121.29 220.328 121.277 220.001 121.183 219.702C121.086 219.398 120.919 219.137 120.679 218.922C120.441 218.706 120.143 218.55 119.783 218.454C119.351 218.337 118.949 218.342 118.575 218.469C118.204 218.591 117.883 218.818 117.609 219.145C117.337 219.47 117.133 219.876 117.002 220.362C116.874 220.846 116.843 221.296 116.911 221.715C116.982 222.128 117.149 222.484 117.405 222.778C117.666 223.072 118.016 223.277 118.458 223.394C118.829 223.493 119.171 223.506 119.485 223.436C119.798 223.361 120.07 223.215 120.3 222.999C120.53 222.778 120.702 222.503 120.82 222.172L119.822 221.907C119.746 222.071 119.649 222.201 119.534 222.3C119.419 222.398 119.291 222.463 119.153 222.495C119.014 222.523 118.868 222.518 118.714 222.479C118.497 222.419 118.325 222.307 118.197 222.141C118.074 221.972 117.998 221.759 117.972 221.501C117.946 221.244 117.977 220.953 118.066 220.625C118.152 220.302 118.27 220.04 118.421 219.832C118.573 219.626 118.745 219.483 118.941 219.403C119.135 219.322 119.338 219.309 119.553 219.366C119.803 219.434 119.984 219.564 120.091 219.762C120.201 219.954 120.248 220.172 120.224 220.414L121.222 220.68ZM123.859 219.606L122.819 219.33L122.189 219.161L121.954 220.035L122.584 220.201L123.624 220.479L124.499 220.711L124.731 219.84L123.859 219.606ZM123.127 218.183L122.819 219.33L122.584 220.201L121.865 222.861C121.784 223.16 121.776 223.426 121.844 223.657C121.912 223.889 122.04 224.081 122.223 224.232C122.406 224.38 122.631 224.487 122.895 224.546C123.044 224.583 123.172 224.601 123.281 224.604C123.391 224.606 123.477 224.606 123.537 224.598L123.6 223.67C123.569 223.67 123.524 223.67 123.464 223.665C123.409 223.662 123.347 223.649 123.281 223.634C123.195 223.61 123.122 223.574 123.057 223.527C122.994 223.478 122.952 223.41 122.929 223.319C122.908 223.225 122.918 223.103 122.96 222.952L123.624 220.479L123.859 219.606L124.167 218.461L123.127 218.183ZM128.98 222.333C128.954 222.001 128.873 221.709 128.74 221.462C128.606 221.215 128.429 221.012 128.212 220.854C127.995 220.693 127.749 220.578 127.478 220.505C127.054 220.391 126.66 220.399 126.289 220.526C125.92 220.648 125.599 220.875 125.325 221.202C125.05 221.527 124.849 221.938 124.716 222.43C124.58 222.929 124.549 223.387 124.624 223.803C124.697 224.216 124.867 224.567 125.134 224.853C125.403 225.139 125.758 225.342 126.203 225.459C126.545 225.55 126.866 225.576 127.164 225.537C127.462 225.493 127.723 225.392 127.948 225.23C128.178 225.069 128.361 224.859 128.497 224.596L127.556 224.219C127.472 224.341 127.373 224.437 127.258 224.502C127.146 224.57 127.018 224.611 126.884 224.627C126.749 224.64 126.605 224.624 126.453 224.585C126.226 224.526 126.043 224.419 125.902 224.271C125.761 224.12 125.669 223.933 125.63 223.712C125.591 223.496 125.607 223.254 125.672 222.986L128.755 223.808L128.849 223.462C128.962 223.041 129.006 222.666 128.98 222.333ZM127.961 222.781L125.884 222.224C125.941 222.04 126.033 221.878 126.153 221.741C126.291 221.585 126.459 221.473 126.649 221.405C126.84 221.337 127.041 221.33 127.256 221.387C127.454 221.439 127.616 221.535 127.742 221.673C127.867 221.811 127.948 221.977 127.987 222.17C128.026 222.359 128.016 222.565 127.961 222.781ZM133.746 220.534L133.103 222.921L133.061 222.908C133.038 222.778 132.996 222.633 132.933 222.476C132.871 222.318 132.769 222.17 132.628 222.032C132.487 221.891 132.285 221.787 132.027 221.717C131.687 221.626 131.353 221.639 131.026 221.754C130.699 221.868 130.404 222.086 130.143 222.411C129.881 222.734 129.68 223.16 129.537 223.691C129.395 224.216 129.356 224.684 129.416 225.095C129.476 225.506 129.618 225.844 129.84 226.109C130.062 226.375 130.349 226.554 130.697 226.648C130.95 226.715 131.172 226.726 131.363 226.679C131.554 226.632 131.718 226.559 131.854 226.458C131.993 226.354 132.102 226.25 132.189 226.148L132.251 226.164L132.05 226.918L133.074 227.191L134.791 220.812L133.746 220.534ZM132.693 224.526C132.609 224.835 132.497 225.095 132.353 225.308C132.21 225.519 132.042 225.67 131.852 225.758C131.661 225.844 131.457 225.86 131.235 225.8C131.008 225.74 130.833 225.623 130.71 225.446C130.592 225.269 130.522 225.056 130.503 224.801C130.488 224.546 130.522 224.268 130.603 223.969C130.681 223.673 130.791 223.418 130.932 223.21C131.073 222.999 131.24 222.851 131.431 222.76C131.622 222.672 131.833 222.659 132.066 222.721C132.291 222.781 132.463 222.893 132.581 223.062C132.703 223.228 132.771 223.439 132.79 223.688C132.808 223.938 132.777 224.216 132.693 224.526Z" fill="#F9FAFC"/>
</g>
<defs>
<filter id="filter0_di_5807_34276" x="0.373047" y="0" width="264.623" height="263.943" filterUnits="userSpaceOnUse" color-interpolation-filters="sRGB">
<feFlood flood-opacity="0" result="BackgroundImageFix"/>
<feColorMatrix in="SourceAlpha" type="matrix" values="0 0 0 0 0 0 0 0 0 0 0 0 0 0 0 0 0 0 127 0" result="hardAlpha"/>
<feOffset dy="-2"/>
<feGaussianBlur stdDeviation="2"/>
<feComposite in2="hardAlpha" operator="out"/>
<feColorMatrix type="matrix" values="0 0 0 0 0 0 0 0 0 0 0 0 0 0 0 0 0 0 0.15 0"/>
<feBlend mode="normal" in2="BackgroundImageFix" result="effect1_dropShadow_5807_34276"/>
<feBlend mode="normal" in="SourceGraphic" in2="effect1_dropShadow_5807_34276" result="shape"/>
<feColorMatrix in="SourceAlpha" type="matrix" values="0 0 0 0 0 0 0 0 0 0 0 0 0 0 0 0 0 0 127 0" result="hardAlpha"/>
<feOffset dy="-2"/>
<feComposite in2="hardAlpha" operator="arithmetic" k2="-1" k3="1"/>
<feColorMatrix type="matrix" values="0 0 0 0 0 0 0 0 0 0 0 0 0 0 0 0 0 0 0.15 0"/>
<feBlend mode="normal" in2="shape" result="effect2_innerShadow_5807_34276"/>
</filter>
<linearGradient id="paint0_linear_5807_34276" x1="284.788" y1="-106.404" x2="152.059" y2="106.463" gradientUnits="userSpaceOnUse">
<stop stop-color="#6C7DF4"/>
<stop offset="1" stop-color="#576AF2"/>
</linearGradient>
<linearGradient id="paint1_linear_5807_34276" x1="-25.6179" y1="386.694" x2="101.804" y2="182.339" gradientUnits="userSpaceOnUse">
<stop stop-color="#6C7DF4"/>
<stop offset="1" stop-color="#96A2F7"/>
</linearGradient>
<linearGradient id="paint2_linear_5807_34276" x1="153.881" y1="60.7188" x2="148.666" y2="43.6603" gradientUnits="userSpaceOnUse">
<stop stop-color="#2D45EF"/>
<stop offset="1" stop-color="#6C7DF4"/>
</linearGradient>
<linearGradient id="paint3_linear_5807_34276" x1="110.031" y1="193.273" x2="105.828" y2="238.998" gradientUnits="userSpaceOnUse">
<stop stop-color="#2D45EF"/>
<stop offset="1" stop-color="#6C7DF4"/>
</linearGradient>
</defs>
</svg>
